<svg version="1.1" xmlns="http://www.w3.org/2000/svg" xmlns:xlink="http://www.w3.org/1999/xlink" width="485" height="2856"><defs/><g><g/><g/><g/><g/><g/><g/><g/><g/><g/><g/><g/><g/><g/><g/><g/><g/><g/><g/><g/><g/><g/><g/><g/><g/><g/><g/><g/><g/><g/><g/><g/><g/><g/><g/><g/><g/><g/><g/><g/><g/><g/><g/><g/><g/><g/><g/><g><rect fill="white" stroke="none" x="0" y="0" width="485" height="2856"/></g><g><text fill="black" stroke="none" font-family="sans-serif" font-size="16.5pt" font-style="normal" font-weight="normal" text-decoration="normal" x="55.1253799426745" y="24.50280495" text-anchor="start" dominant-baseline="alphabetic" xml:space="preserve"> Bonus - Artist Search Result in Cache</text></g><g/><g><path fill="none" stroke="black" paint-order="fill stroke markers" d=" M 44.631447682160164 95.887643371 L 44.631447682160164 2856.784396567113" stroke-miterlimit="10" stroke-width="1.3612669416666667" stroke-dasharray="12.565541,5.445067766666667"/><path fill="none" stroke="black" paint-order="fill stroke markers" d=" M 438.1561011436185 95.887643371 L 438.1561011436185 2856.784396567113" stroke-miterlimit="10" stroke-width="1.3612669416666667" stroke-dasharray="12.565541,5.445067766666667"/></g><g><path fill="none" stroke="none"/><g><path fill="white" stroke="black" paint-order="fill stroke markers" d=" M 8.167601650000002 51.782594461 L 81.09529371432032 51.782594461 L 81.09529371432032 95.887643371 L 8.167601650000002 95.887643371 L 8.167601650000002 51.782594461 Z" stroke-miterlimit="10" stroke-width="2.613632528" stroke-dasharray=""/></g><g><g/><text fill="black" stroke="none" font-family="sans-serif" font-size="11pt" font-style="normal" font-weight="normal" text-decoration="normal" x="25.891297230500008" y="79.55244007099999" text-anchor="start" dominant-baseline="alphabetic" xml:space="preserve">Client</text></g><path fill="none" stroke="none"/><g><path fill="white" stroke="black" paint-order="fill stroke markers" d=" M 398.843301864388 51.782594461 L 477.46890042284895 51.782594461 L 477.46890042284895 95.887643371 L 398.843301864388 95.887643371 L 398.843301864388 51.782594461 Z" stroke-miterlimit="10" stroke-width="2.613632528" stroke-dasharray=""/></g><g><g/><text fill="black" stroke="none" font-family="sans-serif" font-size="11pt" font-style="normal" font-weight="normal" text-decoration="normal" x="416.56699744488805" y="79.55244007099999" text-anchor="start" dominant-baseline="alphabetic" xml:space="preserve">Server</text></g></g><g><g><g><rect fill="white" stroke="none" x="186.40232570499873" y="128.55804997099997" width="109.98289741578125" height="21.23576429"/></g><text fill="black" stroke="none" font-family="sans-serif" font-size="11pt" font-style="normal" font-weight="normal" text-decoration="normal" x="188.85260619999872" y="143.25973294099998" text-anchor="start" dominant-baseline="alphabetic" xml:space="preserve">GET /HTTP /1.1</text></g><g><path fill="none" stroke="black" paint-order="fill stroke markers" d=" M 44.631447682160164 143.80719582724242 L 435.4335672602852 160.0293867807879" stroke-miterlimit="10" stroke-width="1.3612669416666667" stroke-dasharray=""/><g transform="translate(438.1561011436185,160.1423991272424) rotate(2.376982453987206,0,0) translate(-438.1561011436185,-160.1423991272424)"><path fill="black" stroke="none" paint-order="stroke fill markers" d=" M 424.54343172695184 153.33606441890907 L 438.1561011436185 160.1423991272424 L 424.54343172695184 166.94873383557575 Z"/><g transform="rotate(-2.376982453987206,0,0)"/></g></g><g><g><rect fill="white" stroke="none" x="138.52474696964717" y="184.6452040772424" width="205.73805488648438" height="21.23576429"/></g><text fill="black" stroke="none" font-family="sans-serif" font-size="11pt" font-style="normal" font-weight="normal" text-decoration="normal" x="140.97502746464716" y="199.34688704724238" text-anchor="start" dominant-baseline="alphabetic" xml:space="preserve">HTTP/1.1 200 OK  + main.thml</text></g><g><path fill="none" stroke="black" paint-order="fill stroke markers" d=" M 438.1561011436185 201.88174761054125 L 47.3539815654935 218.10393856408672" stroke-miterlimit="10" stroke-width="1.3612669416666667" stroke-dasharray=""/><g transform="translate(44.631447682160164,218.21695091054124) rotate(-2.376982453987206,0,0) translate(-44.631447682160164,-218.21695091054124)"><path fill="black" stroke="none" paint-order="stroke fill markers" d=" M 58.244117098826834 211.4106162022079 L 44.631447682160164 218.21695091054124 L 58.244117098826834 225.02328561887458 Z"/><g transform="rotate(2.376982453987206,0,0)"/></g></g><g><g><rect fill="white" stroke="none" x="159.89913661808467" y="242.71975586054123" width="162.98927558960938" height="21.23576429"/></g><text fill="black" stroke="none" font-family="sans-serif" font-size="11pt" font-style="normal" font-weight="normal" text-decoration="normal" x="162.34941711308466" y="257.4214388305412" text-anchor="start" dominant-baseline="alphabetic" xml:space="preserve">GET /images/banner.jpg</text></g><g><path fill="none" stroke="black" paint-order="fill stroke markers" d=" M 44.631447682160164 259.0690487546502 L 435.4335672602852 275.2912397081957" stroke-miterlimit="10" stroke-width="1.3612669416666667" stroke-dasharray=""/><g transform="translate(438.1561011436185,275.4042520546502) rotate(2.376982453987206,0,0) translate(-438.1561011436185,-275.4042520546502)"><path fill="black" stroke="none" paint-order="stroke fill markers" d=" M 424.54343172695184 268.5979173463169 L 438.1561011436185 275.4042520546502 L 424.54343172695184 282.21058676298355 Z"/><g transform="rotate(-2.376982453987206,0,0)"/></g></g><g><g><rect fill="white" stroke="none" x="136.05875881046748" y="299.9070570046502" width="210.67003120484375" height="21.23576429"/></g><text fill="black" stroke="none" font-family="sans-serif" font-size="11pt" font-style="normal" font-weight="normal" text-decoration="normal" x="138.50903930546747" y="314.6087399746502" text-anchor="start" dominant-baseline="alphabetic" xml:space="preserve">HTTP/1.1 200 OK  + banner.jpg</text></g><g><path fill="none" stroke="black" paint-order="fill stroke markers" d=" M 438.1561011436185 317.24596367469604 L 47.3539815654935 333.4681546282415" stroke-miterlimit="10" stroke-width="1.3612669416666667" stroke-dasharray=""/><g transform="translate(44.631447682160164,333.58116697469603) rotate(-2.376982453987206,0,0) translate(-44.631447682160164,-333.58116697469603)"><path fill="black" stroke="none" paint-order="stroke fill markers" d=" M 58.244117098826834 326.7748322663627 L 44.631447682160164 333.58116697469603 L 58.244117098826834 340.38750168302937 Z"/><g transform="rotate(2.376982453987206,0,0)"/></g></g><g><g><rect fill="white" stroke="none" x="114.090260580487" y="358.083971924696" width="254.6070276648047" height="21.23576429"/></g><text fill="black" stroke="none" font-family="sans-serif" font-size="11pt" font-style="normal" font-weight="normal" text-decoration="normal" x="116.540541075487" y="372.785654894696" text-anchor="start" dominant-baseline="alphabetic" xml:space="preserve">GET /search?artist=eminem HTTP/1.1</text></g><g><path fill="none" stroke="black" paint-order="fill stroke markers" d=" M 44.631447682160164 376.3347906735046 L 435.4335672602852 392.55698162705005" stroke-miterlimit="10" stroke-width="1.3612669416666667" stroke-dasharray=""/><g transform="translate(438.1561011436185,392.6699939735046) rotate(2.376982453987206,0,0) translate(-438.1561011436185,-392.6699939735046)"><path fill="black" stroke="none" paint-order="stroke fill markers" d=" M 424.54343172695184 385.86365926517124 L 438.1561011436185 392.6699939735046 L 424.54343172695184 399.4763286818379 Z"/><g transform="rotate(-2.376982453987206,0,0)"/></g></g><g><g><rect fill="white" stroke="none" x="63.96143825382684" y="417.17279892350456" width="354.864672318125" height="21.23576429"/></g><text fill="black" stroke="none" font-family="sans-serif" font-size="11pt" font-style="normal" font-weight="normal" text-decoration="normal" x="66.41171874882684" y="431.87448189350454" text-anchor="start" dominant-baseline="alphabetic" xml:space="preserve">HTTP/1.1 200 OK  + text/html with cached image tags</text></g><g><path fill="none" stroke="black" paint-order="fill stroke markers" d=" M 438.1561011436185 437.50446444186827 L 47.3539815654935 453.72665539541373" stroke-miterlimit="10" stroke-width="1.3612669416666667" stroke-dasharray=""/><g transform="translate(44.631447682160164,453.83966774186825) rotate(-2.376982453987206,0,0) translate(-44.631447682160164,-453.83966774186825)"><path fill="black" stroke="none" paint-order="stroke fill markers" d=" M 58.244117098826834 447.0333330335349 L 44.631447682160164 453.83966774186825 L 58.244117098826834 460.6460024502016 Z"/><g transform="rotate(2.376982453987206,0,0)"/></g></g><g><g><rect fill="white" stroke="none" x="151.7674303802917" y="478.34247269186824" width="179.25268806519531" height="21.23576429"/></g><text fill="black" stroke="none" font-family="sans-serif" font-size="11pt" font-style="normal" font-weight="normal" text-decoration="normal" x="154.2177108752917" y="493.0441556618682" text-anchor="start" dominant-baseline="alphabetic" xml:space="preserve">GET /album-art/ab(...)1.jpg</text></g><g><path fill="none" stroke="black" paint-order="fill stroke markers" d=" M 44.631447682160164 495.02931260724216 L 435.4335672602852 511.2515035607876" stroke-miterlimit="10" stroke-width="1.3612669416666667" stroke-dasharray=""/><g transform="translate(438.1561011436185,511.36451590724215) rotate(2.376982453987206,0,0) translate(-438.1561011436185,-511.36451590724215)"><path fill="black" stroke="none" paint-order="stroke fill markers" d=" M 424.54343172695184 504.5581811989088 L 438.1561011436185 511.36451590724215 L 424.54343172695184 518.1708506155754 Z"/><g transform="rotate(-2.376982453987206,0,0)"/></g></g><g><g><rect fill="white" stroke="none" x="151.7674303802917" y="535.8673208572422" width="179.25268806519531" height="21.23576429"/></g><text fill="black" stroke="none" font-family="sans-serif" font-size="11pt" font-style="normal" font-weight="normal" text-decoration="normal" x="154.2177108752917" y="550.5690038272422" text-anchor="start" dominant-baseline="alphabetic" xml:space="preserve">GET /album-art/ab(...)2.jpg</text></g><g><path fill="none" stroke="black" paint-order="fill stroke markers" d=" M 44.631447682160164 552.5541607726161 L 435.4335672602852 568.7763517261616" stroke-miterlimit="10" stroke-width="1.3612669416666667" stroke-dasharray=""/><g transform="translate(438.1561011436185,568.8893640726161) rotate(2.376982453987206,0,0) translate(-438.1561011436185,-568.8893640726161)"><path fill="black" stroke="none" paint-order="stroke fill markers" d=" M 424.54343172695184 562.0830293642828 L 438.1561011436185 568.8893640726161 L 424.54343172695184 575.6956987809494 Z"/><g transform="rotate(-2.376982453987206,0,0)"/></g></g><g><g><rect fill="white" stroke="none" x="102.26134975285028" y="593.3921690226161" width="278.2648493200781" height="21.23576429"/></g><text fill="black" stroke="none" font-family="sans-serif" font-size="11pt" font-style="normal" font-weight="normal" text-decoration="normal" x="104.71163024785028" y="608.0938519926161" text-anchor="start" dominant-baseline="alphabetic" xml:space="preserve">HTTP/1.1 200 OK  + album-art/ab(...)1.jpg</text></g><g><path fill="none" stroke="black" paint-order="fill stroke markers" d=" M 438.1561011436185 612.1340057076261 L 47.3539815654935 628.3561966611716" stroke-miterlimit="10" stroke-width="1.3612669416666667" stroke-dasharray=""/><g transform="translate(44.631447682160164,628.4692090076261) rotate(-2.376982453987206,0,0) translate(-44.631447682160164,-628.4692090076261)"><path fill="black" stroke="none" paint-order="stroke fill markers" d=" M 58.244117098826834 621.6628742992928 L 44.631447682160164 628.4692090076261 L 58.244117098826834 635.2755437159594 Z"/><g transform="rotate(2.376982453987206,0,0)"/></g></g><g><g><rect fill="white" stroke="none" x="102.26134975285028" y="652.9720139576261" width="278.2648493200781" height="21.23576429"/></g><text fill="black" stroke="none" font-family="sans-serif" font-size="11pt" font-style="normal" font-weight="normal" text-decoration="normal" x="104.71163024785028" y="667.6736969276261" text-anchor="start" dominant-baseline="alphabetic" xml:space="preserve">HTTP/1.1 200 OK  + album-art/ab(...)2.jpg</text></g><g><path fill="none" stroke="black" paint-order="fill stroke markers" d=" M 438.1561011436185 671.7138506426361 L 47.3539815654935 687.9360415961816" stroke-miterlimit="10" stroke-width="1.3612669416666667" stroke-dasharray=""/><g transform="translate(44.631447682160164,688.0490539426361) rotate(-2.376982453987206,0,0) translate(-44.631447682160164,-688.0490539426361)"><path fill="black" stroke="none" paint-order="stroke fill markers" d=" M 58.244117098826834 681.2427192343027 L 44.631447682160164 688.0490539426361 L 58.244117098826834 694.8553886509694 Z"/><g transform="rotate(2.376982453987206,0,0)"/></g></g><g><g><rect fill="white" stroke="none" x="151.7674303802917" y="712.5518588926361" width="179.25268806519531" height="21.23576429"/></g><text fill="black" stroke="none" font-family="sans-serif" font-size="11pt" font-style="normal" font-weight="normal" text-decoration="normal" x="154.2177108752917" y="727.2535418626361" text-anchor="start" dominant-baseline="alphabetic" xml:space="preserve">GET /album-art/ab(...)3.jpg</text></g><g><path fill="none" stroke="black" paint-order="fill stroke markers" d=" M 44.631447682160164 729.23869880801 L 435.4335672602852 745.4608897615554" stroke-miterlimit="10" stroke-width="1.3612669416666667" stroke-dasharray=""/><g transform="translate(438.1561011436185,745.57390210801) rotate(2.376982453987206,0,0) translate(-438.1561011436185,-745.57390210801)"><path fill="black" stroke="none" paint-order="stroke fill markers" d=" M 424.54343172695184 738.7675673996766 L 438.1561011436185 745.57390210801 L 424.54343172695184 752.3802368163433 Z"/><g transform="rotate(-2.376982453987206,0,0)"/></g></g><g><g><rect fill="white" stroke="none" x="102.26134975285028" y="770.07670705801" width="278.2648493200781" height="21.23576429"/></g><text fill="black" stroke="none" font-family="sans-serif" font-size="11pt" font-style="normal" font-weight="normal" text-decoration="normal" x="104.71163024785028" y="784.77839002801" text-anchor="start" dominant-baseline="alphabetic" xml:space="preserve">HTTP/1.1 200 OK  + album-art/ab(...)3.jpg</text></g><g><path fill="none" stroke="black" paint-order="fill stroke markers" d=" M 438.1561011436185 788.81854374302 L 47.3539815654935 805.0407346965654" stroke-miterlimit="10" stroke-width="1.3612669416666667" stroke-dasharray=""/><g transform="translate(44.631447682160164,805.15374704302) rotate(-2.376982453987206,0,0) translate(-44.631447682160164,-805.15374704302)"><path fill="black" stroke="none" paint-order="stroke fill markers" d=" M 58.244117098826834 798.3474123346866 L 44.631447682160164 805.15374704302 L 58.244117098826834 811.9600817513533 Z"/><g transform="rotate(2.376982453987206,0,0)"/></g></g><g><g><rect fill="white" stroke="none" x="151.7674303802917" y="829.65655199302" width="179.25268806519531" height="21.23576429"/></g><text fill="black" stroke="none" font-family="sans-serif" font-size="11pt" font-style="normal" font-weight="normal" text-decoration="normal" x="154.2177108752917" y="844.35823496302" text-anchor="start" dominant-baseline="alphabetic" xml:space="preserve">GET /album-art/ab(...)4.jpg</text></g><g><path fill="none" stroke="black" paint-order="fill stroke markers" d=" M 44.631447682160164 846.3433919083939 L 435.4335672602852 862.5655828619393" stroke-miterlimit="10" stroke-width="1.3612669416666667" stroke-dasharray=""/><g transform="translate(438.1561011436185,862.6785952083939) rotate(2.376982453987206,0,0) translate(-438.1561011436185,-862.6785952083939)"><path fill="black" stroke="none" paint-order="stroke fill markers" d=" M 424.54343172695184 855.8722605000605 L 438.1561011436185 862.6785952083939 L 424.54343172695184 869.4849299167272 Z"/><g transform="rotate(-2.376982453987206,0,0)"/></g></g><g><g><rect fill="white" stroke="none" x="151.7674303802917" y="887.1814001583939" width="179.25268806519531" height="21.23576429"/></g><text fill="black" stroke="none" font-family="sans-serif" font-size="11pt" font-style="normal" font-weight="normal" text-decoration="normal" x="154.2177108752917" y="901.8830831283939" text-anchor="start" dominant-baseline="alphabetic" xml:space="preserve">GET /album-art/ab(...)5.jpg</text></g><g><path fill="none" stroke="black" paint-order="fill stroke markers" d=" M 44.631447682160164 903.8682400737678 L 435.4335672602852 920.0904310273132" stroke-miterlimit="10" stroke-width="1.3612669416666667" stroke-dasharray=""/><g transform="translate(438.1561011436185,920.2034433737678) rotate(2.376982453987206,0,0) translate(-438.1561011436185,-920.2034433737678)"><path fill="black" stroke="none" paint-order="stroke fill markers" d=" M 424.54343172695184 913.3971086654344 L 438.1561011436185 920.2034433737678 L 424.54343172695184 927.0097780821011 Z"/><g transform="rotate(-2.376982453987206,0,0)"/></g></g><g><g><rect fill="white" stroke="none" x="151.7674303802917" y="944.7062483237678" width="179.25268806519531" height="21.23576429"/></g><text fill="black" stroke="none" font-family="sans-serif" font-size="11pt" font-style="normal" font-weight="normal" text-decoration="normal" x="154.2177108752917" y="959.4079312937678" text-anchor="start" dominant-baseline="alphabetic" xml:space="preserve">GET /album-art/ab(...)6.jpg</text></g><g><path fill="none" stroke="black" paint-order="fill stroke markers" d=" M 44.631447682160164 961.3930882391417 L 435.4335672602852 977.6152791926871" stroke-miterlimit="10" stroke-width="1.3612669416666667" stroke-dasharray=""/><g transform="translate(438.1561011436185,977.7282915391417) rotate(2.376982453987206,0,0) translate(-438.1561011436185,-977.7282915391417)"><path fill="black" stroke="none" paint-order="stroke fill markers" d=" M 424.54343172695184 970.9219568308083 L 438.1561011436185 977.7282915391417 L 424.54343172695184 984.534626247475 Z"/><g transform="rotate(-2.376982453987206,0,0)"/></g></g><g><g><rect fill="white" stroke="none" x="151.7674303802917" y="1002.2310964891417" width="179.25268806519531" height="21.23576429"/></g><text fill="black" stroke="none" font-family="sans-serif" font-size="11pt" font-style="normal" font-weight="normal" text-decoration="normal" x="154.2177108752917" y="1016.9327794591417" text-anchor="start" dominant-baseline="alphabetic" xml:space="preserve">GET /album-art/ab(...)7.jpg</text></g><g><path fill="none" stroke="black" paint-order="fill stroke markers" d=" M 44.631447682160164 1018.9179364045157 L 435.4335672602852 1035.1401273580611" stroke-miterlimit="10" stroke-width="1.3612669416666667" stroke-dasharray=""/><g transform="translate(438.1561011436185,1035.2531397045157) rotate(2.376982453987206,0,0) translate(-438.1561011436185,-1035.2531397045157)"><path fill="black" stroke="none" paint-order="stroke fill markers" d=" M 424.54343172695184 1028.4468049961824 L 438.1561011436185 1035.2531397045157 L 424.54343172695184 1042.0594744128489 Z"/><g transform="rotate(-2.376982453987206,0,0)"/></g></g><g><g><rect fill="white" stroke="none" x="151.7674303802917" y="1059.7559446545156" width="179.25268806519531" height="21.23576429"/></g><text fill="black" stroke="none" font-family="sans-serif" font-size="11pt" font-style="normal" font-weight="normal" text-decoration="normal" x="154.2177108752917" y="1074.4576276245157" text-anchor="start" dominant-baseline="alphabetic" xml:space="preserve">GET /album-art/ab(...)8.jpg</text></g><g><path fill="none" stroke="black" paint-order="fill stroke markers" d=" M 44.631447682160164 1076.4427845698895 L 435.4335672602852 1092.664975523435" stroke-miterlimit="10" stroke-width="1.3612669416666667" stroke-dasharray=""/><g transform="translate(438.1561011436185,1092.7779878698896) rotate(2.376982453987206,0,0) translate(-438.1561011436185,-1092.7779878698896)"><path fill="black" stroke="none" paint-order="stroke fill markers" d=" M 424.54343172695184 1085.9716531615563 L 438.1561011436185 1092.7779878698896 L 424.54343172695184 1099.5843225782228 Z"/><g transform="rotate(-2.376982453987206,0,0)"/></g></g><g><g><rect fill="white" stroke="none" x="151.7674303802917" y="1117.2807928198895" width="179.25268806519531" height="21.23576429"/></g><text fill="black" stroke="none" font-family="sans-serif" font-size="11pt" font-style="normal" font-weight="normal" text-decoration="normal" x="154.2177108752917" y="1131.9824757898896" text-anchor="start" dominant-baseline="alphabetic" xml:space="preserve">GET /album-art/ab(...)9.jpg</text></g><g><path fill="none" stroke="black" paint-order="fill stroke markers" d=" M 44.631447682160164 1133.9676327352634 L 435.4335672602852 1150.189823688809" stroke-miterlimit="10" stroke-width="1.3612669416666667" stroke-dasharray=""/><g transform="translate(438.1561011436185,1150.3028360352635) rotate(2.376982453987206,0,0) translate(-438.1561011436185,-1150.3028360352635)"><path fill="black" stroke="none" paint-order="stroke fill markers" d=" M 424.54343172695184 1143.4965013269302 L 438.1561011436185 1150.3028360352635 L 424.54343172695184 1157.1091707435967 Z"/><g transform="rotate(-2.376982453987206,0,0)"/></g></g><g><g><rect fill="white" stroke="none" x="102.26134975285028" y="1174.8056409852634" width="278.2648493200781" height="21.23576429"/></g><text fill="black" stroke="none" font-family="sans-serif" font-size="11pt" font-style="normal" font-weight="normal" text-decoration="normal" x="104.71163024785028" y="1189.5073239552635" text-anchor="start" dominant-baseline="alphabetic" xml:space="preserve">HTTP/1.1 200 OK  + album-art/ab(...)4.jpg</text></g><g><path fill="none" stroke="black" paint-order="fill stroke markers" d=" M 438.1561011436185 1193.5474776702733 L 47.3539815654935 1209.769668623819" stroke-miterlimit="10" stroke-width="1.3612669416666667" stroke-dasharray=""/><g transform="translate(44.631447682160164,1209.8826809702734) rotate(-2.376982453987206,0,0) translate(-44.631447682160164,-1209.8826809702734)"><path fill="black" stroke="none" paint-order="stroke fill markers" d=" M 58.244117098826834 1203.0763462619402 L 44.631447682160164 1209.8826809702734 L 58.244117098826834 1216.6890156786067 Z"/><g transform="rotate(2.376982453987206,0,0)"/></g></g><g><g><rect fill="white" stroke="none" x="102.26134975285028" y="1234.3854859202734" width="278.2648493200781" height="21.23576429"/></g><text fill="black" stroke="none" font-family="sans-serif" font-size="11pt" font-style="normal" font-weight="normal" text-decoration="normal" x="104.71163024785028" y="1249.0871688902735" text-anchor="start" dominant-baseline="alphabetic" xml:space="preserve">HTTP/1.1 200 OK  + album-art/ab(...)5.jpg</text></g><g><path fill="none" stroke="black" paint-order="fill stroke markers" d=" M 438.1561011436185 1253.1273226052833 L 47.3539815654935 1269.349513558829" stroke-miterlimit="10" stroke-width="1.3612669416666667" stroke-dasharray=""/><g transform="translate(44.631447682160164,1269.4625259052834) rotate(-2.376982453987206,0,0) translate(-44.631447682160164,-1269.4625259052834)"><path fill="black" stroke="none" paint-order="stroke fill markers" d=" M 58.244117098826834 1262.6561911969502 L 44.631447682160164 1269.4625259052834 L 58.244117098826834 1276.2688606136167 Z"/><g transform="rotate(2.376982453987206,0,0)"/></g></g><g><g><rect fill="white" stroke="none" x="102.26134975285028" y="1293.9653308552834" width="278.2648493200781" height="21.23576429"/></g><text fill="black" stroke="none" font-family="sans-serif" font-size="11pt" font-style="normal" font-weight="normal" text-decoration="normal" x="104.71163024785028" y="1308.6670138252834" text-anchor="start" dominant-baseline="alphabetic" xml:space="preserve">HTTP/1.1 200 OK  + album-art/ab(...)6.jpg</text></g><g><path fill="none" stroke="black" paint-order="fill stroke markers" d=" M 438.1561011436185 1312.7071675402933 L 47.3539815654935 1328.929358493839" stroke-miterlimit="10" stroke-width="1.3612669416666667" stroke-dasharray=""/><g transform="translate(44.631447682160164,1329.0423708402934) rotate(-2.376982453987206,0,0) translate(-44.631447682160164,-1329.0423708402934)"><path fill="black" stroke="none" paint-order="stroke fill markers" d=" M 58.244117098826834 1322.2360361319602 L 44.631447682160164 1329.0423708402934 L 58.244117098826834 1335.8487055486266 Z"/><g transform="rotate(2.376982453987206,0,0)"/></g></g><g><g><rect fill="white" stroke="none" x="102.26134975285028" y="1353.5451757902933" width="278.2648493200781" height="21.23576429"/></g><text fill="black" stroke="none" font-family="sans-serif" font-size="11pt" font-style="normal" font-weight="normal" text-decoration="normal" x="104.71163024785028" y="1368.2468587602934" text-anchor="start" dominant-baseline="alphabetic" xml:space="preserve">HTTP/1.1 200 OK  + album-art/ab(...)7.jpg</text></g><g><path fill="none" stroke="black" paint-order="fill stroke markers" d=" M 438.1561011436185 1372.2870124753033 L 47.3539815654935 1388.5092034288489" stroke-miterlimit="10" stroke-width="1.3612669416666667" stroke-dasharray=""/><g transform="translate(44.631447682160164,1388.6222157753034) rotate(-2.376982453987206,0,0) translate(-44.631447682160164,-1388.6222157753034)"><path fill="black" stroke="none" paint-order="stroke fill markers" d=" M 58.244117098826834 1381.8158810669702 L 44.631447682160164 1388.6222157753034 L 58.244117098826834 1395.4285504836366 Z"/><g transform="rotate(2.376982453987206,0,0)"/></g></g><g><g><rect fill="white" stroke="none" x="102.26134975285028" y="1413.1250207253033" width="278.2648493200781" height="21.23576429"/></g><text fill="black" stroke="none" font-family="sans-serif" font-size="11pt" font-style="normal" font-weight="normal" text-decoration="normal" x="104.71163024785028" y="1427.8267036953034" text-anchor="start" dominant-baseline="alphabetic" xml:space="preserve">HTTP/1.1 200 OK  + album-art/ab(...)8.jpg</text></g><g><path fill="none" stroke="black" paint-order="fill stroke markers" d=" M 438.1561011436185 1431.8668574103133 L 47.3539815654935 1448.0890483638589" stroke-miterlimit="10" stroke-width="1.3612669416666667" stroke-dasharray=""/><g transform="translate(44.631447682160164,1448.2020607103134) rotate(-2.376982453987206,0,0) translate(-44.631447682160164,-1448.2020607103134)"><path fill="black" stroke="none" paint-order="stroke fill markers" d=" M 58.244117098826834 1441.3957260019802 L 44.631447682160164 1448.2020607103134 L 58.244117098826834 1455.0083954186466 Z"/><g transform="rotate(2.376982453987206,0,0)"/></g></g><g><g><rect fill="white" stroke="none" x="102.26134975285028" y="1472.7048656603133" width="278.2648493200781" height="21.23576429"/></g><text fill="black" stroke="none" font-family="sans-serif" font-size="11pt" font-style="normal" font-weight="normal" text-decoration="normal" x="104.71163024785028" y="1487.4065486303134" text-anchor="start" dominant-baseline="alphabetic" xml:space="preserve">HTTP/1.1 200 OK  + album-art/ab(...)9.jpg</text></g><g><path fill="none" stroke="black" paint-order="fill stroke markers" d=" M 438.1561011436185 1491.4467023453233 L 47.3539815654935 1507.6688932988689" stroke-miterlimit="10" stroke-width="1.3612669416666667" stroke-dasharray=""/><g transform="translate(44.631447682160164,1507.7819056453234) rotate(-2.376982453987206,0,0) translate(-44.631447682160164,-1507.7819056453234)"><path fill="black" stroke="none" paint-order="stroke fill markers" d=" M 58.244117098826834 1500.9755709369902 L 44.631447682160164 1507.7819056453234 L 58.244117098826834 1514.5882403536566 Z"/><g transform="rotate(2.376982453987206,0,0)"/></g></g><g><g><rect fill="white" stroke="none" x="147.69083888859248" y="1532.2847105953233" width="187.40587104859375" height="21.23576429"/></g><text fill="black" stroke="none" font-family="sans-serif" font-size="11pt" font-style="normal" font-weight="normal" text-decoration="normal" x="150.14111938359247" y="1546.9863935653234" text-anchor="start" dominant-baseline="alphabetic" xml:space="preserve">GET /album-art/ab(...)10.jpg</text></g><g><path fill="none" stroke="black" paint-order="fill stroke markers" d=" M 44.631447682160164 1549.1407697710465 L 435.4335672602852 1565.362960724592" stroke-miterlimit="10" stroke-width="1.3612669416666667" stroke-dasharray=""/><g transform="translate(438.1561011436185,1565.4759730710466) rotate(2.376982453987206,0,0) translate(-438.1561011436185,-1565.4759730710466)"><path fill="black" stroke="none" paint-order="stroke fill markers" d=" M 424.54343172695184 1558.6696383627134 L 438.1561011436185 1565.4759730710466 L 424.54343172695184 1572.2823077793798 Z"/><g transform="rotate(-2.376982453987206,0,0)"/></g></g><g><g><rect fill="white" stroke="none" x="148.23486812443232" y="1589.9787780210465" width="186.31781257691406" height="21.23576429"/></g><text fill="black" stroke="none" font-family="sans-serif" font-size="11pt" font-style="normal" font-weight="normal" text-decoration="normal" x="150.6851486194323" y="1604.6804609910466" text-anchor="start" dominant-baseline="alphabetic" xml:space="preserve">GET /album-art/ab(...)11.jpg</text></g><g><path fill="none" stroke="black" paint-order="fill stroke markers" d=" M 44.631447682160164 1606.8122545501924 L 435.4335672602852 1623.034445503738" stroke-miterlimit="10" stroke-width="1.3612669416666667" stroke-dasharray=""/><g transform="translate(438.1561011436185,1623.1474578501925) rotate(2.376982453987206,0,0) translate(-438.1561011436185,-1623.1474578501925)"><path fill="black" stroke="none" paint-order="stroke fill markers" d=" M 424.54343172695184 1616.3411231418593 L 438.1561011436185 1623.1474578501925 L 424.54343172695184 1629.9537925585257 Z"/><g transform="rotate(-2.376982453987206,0,0)"/></g></g><g><g><rect fill="white" stroke="none" x="147.69083888859248" y="1647.6502628001924" width="187.40587104859375" height="21.23576429"/></g><text fill="black" stroke="none" font-family="sans-serif" font-size="11pt" font-style="normal" font-weight="normal" text-decoration="normal" x="150.14111938359247" y="1662.3519457701925" text-anchor="start" dominant-baseline="alphabetic" xml:space="preserve">GET /album-art/ab(...)12.jpg</text></g><g><path fill="none" stroke="black" paint-order="fill stroke markers" d=" M 44.631447682160164 1664.5063219759156 L 435.4335672602852 1680.7285129294612" stroke-miterlimit="10" stroke-width="1.3612669416666667" stroke-dasharray=""/><g transform="translate(438.1561011436185,1680.8415252759157) rotate(2.376982453987206,0,0) translate(-438.1561011436185,-1680.8415252759157)"><path fill="black" stroke="none" paint-order="stroke fill markers" d=" M 424.54343172695184 1674.0351905675825 L 438.1561011436185 1680.8415252759157 L 424.54343172695184 1687.647859984249 Z"/><g transform="rotate(-2.376982453987206,0,0)"/></g></g><g><g><rect fill="white" stroke="none" x="98.18476589054559" y="1705.3443302259159" width="286.4180170446875" height="21.23576429"/></g><text fill="black" stroke="none" font-family="sans-serif" font-size="11pt" font-style="normal" font-weight="normal" text-decoration="normal" x="100.63504638554559" y="1720.046013195916" text-anchor="start" dominant-baseline="alphabetic" xml:space="preserve">HTTP/1.1 200 OK  + album-art/ab(...)10.jpg</text></g><g><path fill="none" stroke="black" paint-order="fill stroke markers" d=" M 438.1561011436185 1724.255385854579 L 47.3539815654935 1740.4775768081245" stroke-miterlimit="10" stroke-width="1.3612669416666667" stroke-dasharray=""/><g transform="translate(44.631447682160164,1740.590589154579) rotate(-2.376982453987206,0,0) translate(-44.631447682160164,-1740.590589154579)"><path fill="black" stroke="none" paint-order="stroke fill markers" d=" M 58.244117098826834 1733.7842544462458 L 44.631447682160164 1740.590589154579 L 58.244117098826834 1747.3969238629122 Z"/><g transform="rotate(2.376982453987206,0,0)"/></g></g><g><g><rect fill="white" stroke="none" x="98.7287874969909" y="1765.0933941045791" width="285.32997383179685" height="21.23576429"/></g><text fill="black" stroke="none" font-family="sans-serif" font-size="11pt" font-style="normal" font-weight="normal" text-decoration="normal" x="101.1790679919909" y="1779.7950770745792" text-anchor="start" dominant-baseline="alphabetic" xml:space="preserve">HTTP/1.1 200 OK  + album-art/ab(...)11.jpg</text></g><g><path fill="none" stroke="black" paint-order="fill stroke markers" d=" M 438.1561011436185 1783.9818674033609 L 47.3539815654935 1800.2040583569064" stroke-miterlimit="10" stroke-width="1.3612669416666667" stroke-dasharray=""/><g transform="translate(44.631447682160164,1800.317070703361) rotate(-2.376982453987206,0,0) translate(-44.631447682160164,-1800.317070703361)"><path fill="black" stroke="none" paint-order="stroke fill markers" d=" M 58.244117098826834 1793.5107359950277 L 44.631447682160164 1800.317070703361 L 58.244117098826834 1807.1234054116942 Z"/><g transform="rotate(2.376982453987206,0,0)"/></g></g><g><g><rect fill="white" stroke="none" x="98.18476589054559" y="1824.8198756533611" width="286.4180170446875" height="21.23576429"/></g><text fill="black" stroke="none" font-family="sans-serif" font-size="11pt" font-style="normal" font-weight="normal" text-decoration="normal" x="100.63504638554559" y="1839.5215586233612" text-anchor="start" dominant-baseline="alphabetic" xml:space="preserve">HTTP/1.1 200 OK  + album-art/ab(...)12.jpg</text></g><g><path fill="none" stroke="black" paint-order="fill stroke markers" d=" M 438.1561011436185 1843.7309312820241 L 47.3539815654935 1859.9531222355697" stroke-miterlimit="10" stroke-width="1.3612669416666667" stroke-dasharray=""/><g transform="translate(44.631447682160164,1860.0661345820242) rotate(-2.376982453987206,0,0) translate(-44.631447682160164,-1860.0661345820242)"><path fill="black" stroke="none" paint-order="stroke fill markers" d=" M 58.244117098826834 1853.259799873691 L 44.631447682160164 1860.0661345820242 L 58.244117098826834 1866.8724692903575 Z"/><g transform="rotate(2.376982453987206,0,0)"/></g></g><g><g><rect fill="white" stroke="none" x="147.69083888859248" y="1884.5689395320242" width="187.40587104859375" height="21.23576429"/></g><text fill="black" stroke="none" font-family="sans-serif" font-size="11pt" font-style="normal" font-weight="normal" text-decoration="normal" x="150.14111938359247" y="1899.2706225020243" text-anchor="start" dominant-baseline="alphabetic" xml:space="preserve">GET /album-art/ab(...)13.jpg</text></g><g><path fill="none" stroke="black" paint-order="fill stroke markers" d=" M 44.631447682160164 1901.4249987077474 L 435.4335672602852 1917.647189661293" stroke-miterlimit="10" stroke-width="1.3612669416666667" stroke-dasharray=""/><g transform="translate(438.1561011436185,1917.7602020077475) rotate(2.376982453987206,0,0) translate(-438.1561011436185,-1917.7602020077475)"><path fill="black" stroke="none" paint-order="stroke fill markers" d=" M 424.54343172695184 1910.9538672994142 L 438.1561011436185 1917.7602020077475 L 424.54343172695184 1924.5665367160807 Z"/><g transform="rotate(-2.376982453987206,0,0)"/></g></g><g><g><rect fill="white" stroke="none" x="147.69083888859248" y="1942.2630069577474" width="187.40587104859375" height="21.23576429"/></g><text fill="black" stroke="none" font-family="sans-serif" font-size="11pt" font-style="normal" font-weight="normal" text-decoration="normal" x="150.14111938359247" y="1956.9646899277475" text-anchor="start" dominant-baseline="alphabetic" xml:space="preserve">GET /album-art/ab(...)14.jpg</text></g><g><path fill="none" stroke="black" paint-order="fill stroke markers" d=" M 44.631447682160164 1959.1190661334706 L 435.4335672602852 1975.3412570870162" stroke-miterlimit="10" stroke-width="1.3612669416666667" stroke-dasharray=""/><g transform="translate(438.1561011436185,1975.4542694334707) rotate(2.376982453987206,0,0) translate(-438.1561011436185,-1975.4542694334707)"><path fill="black" stroke="none" paint-order="stroke fill markers" d=" M 424.54343172695184 1968.6479347251375 L 438.1561011436185 1975.4542694334707 L 424.54343172695184 1982.260604141804 Z"/><g transform="rotate(-2.376982453987206,0,0)"/></g></g><g><g><rect fill="white" stroke="none" x="147.69083888859248" y="1999.9570743834706" width="187.40587104859375" height="21.23576429"/></g><text fill="black" stroke="none" font-family="sans-serif" font-size="11pt" font-style="normal" font-weight="normal" text-decoration="normal" x="150.14111938359247" y="2014.6587573534707" text-anchor="start" dominant-baseline="alphabetic" xml:space="preserve">GET /album-art/ab(...)15.jpg</text></g><g><path fill="none" stroke="black" paint-order="fill stroke markers" d=" M 44.631447682160164 2016.8131335591938 L 435.4335672602852 2033.0353245127394" stroke-miterlimit="10" stroke-width="1.3612669416666667" stroke-dasharray=""/><g transform="translate(438.1561011436185,2033.148336859194) rotate(2.376982453987206,0,0) translate(-438.1561011436185,-2033.148336859194)"><path fill="black" stroke="none" paint-order="stroke fill markers" d=" M 424.54343172695184 2026.3420021508607 L 438.1561011436185 2033.148336859194 L 424.54343172695184 2039.9546715675272 Z"/><g transform="rotate(-2.376982453987206,0,0)"/></g></g><g><g><rect fill="white" stroke="none" x="147.69083888859248" y="2057.6511418091936" width="187.40587104859375" height="21.23576429"/></g><text fill="black" stroke="none" font-family="sans-serif" font-size="11pt" font-style="normal" font-weight="normal" text-decoration="normal" x="150.14111938359247" y="2072.3528247791937" text-anchor="start" dominant-baseline="alphabetic" xml:space="preserve">GET /album-art/ab(...)16.jpg</text></g><g><path fill="none" stroke="black" paint-order="fill stroke markers" d=" M 44.631447682160164 2074.507200984917 L 435.4335672602852 2090.7293919384624" stroke-miterlimit="10" stroke-width="1.3612669416666667" stroke-dasharray=""/><g transform="translate(438.1561011436185,2090.842404284917) rotate(2.376982453987206,0,0) translate(-438.1561011436185,-2090.842404284917)"><path fill="black" stroke="none" paint-order="stroke fill markers" d=" M 424.54343172695184 2084.0360695765835 L 438.1561011436185 2090.842404284917 L 424.54343172695184 2097.6487389932504 Z"/><g transform="rotate(-2.376982453987206,0,0)"/></g></g><g><g><rect fill="white" stroke="none" x="147.69083888859248" y="2115.3452092349166" width="187.40587104859375" height="21.23576429"/></g><text fill="black" stroke="none" font-family="sans-serif" font-size="11pt" font-style="normal" font-weight="normal" text-decoration="normal" x="150.14111938359247" y="2130.0468922049167" text-anchor="start" dominant-baseline="alphabetic" xml:space="preserve">GET /album-art/ab(...)17.jpg</text></g><g><path fill="none" stroke="black" paint-order="fill stroke markers" d=" M 44.631447682160164 2132.20126841064 L 435.4335672602852 2148.4234593641854" stroke-miterlimit="10" stroke-width="1.3612669416666667" stroke-dasharray=""/><g transform="translate(438.1561011436185,2148.53647171064) rotate(2.376982453987206,0,0) translate(-438.1561011436185,-2148.53647171064)"><path fill="black" stroke="none" paint-order="stroke fill markers" d=" M 424.54343172695184 2141.7301370023065 L 438.1561011436185 2148.53647171064 L 424.54343172695184 2155.3428064189734 Z"/><g transform="rotate(-2.376982453987206,0,0)"/></g></g><g><g><rect fill="white" stroke="none" x="147.69083888859248" y="2173.0392766606396" width="187.40587104859375" height="21.23576429"/></g><text fill="black" stroke="none" font-family="sans-serif" font-size="11pt" font-style="normal" font-weight="normal" text-decoration="normal" x="150.14111938359247" y="2187.7409596306397" text-anchor="start" dominant-baseline="alphabetic" xml:space="preserve">GET /album-art/ab(...)18.jpg</text></g><g><path fill="none" stroke="black" paint-order="fill stroke markers" d=" M 44.631447682160164 2189.895335836363 L 435.4335672602852 2206.1175267899084" stroke-miterlimit="10" stroke-width="1.3612669416666667" stroke-dasharray=""/><g transform="translate(438.1561011436185,2206.230539136363) rotate(2.376982453987206,0,0) translate(-438.1561011436185,-2206.230539136363)"><path fill="black" stroke="none" paint-order="stroke fill markers" d=" M 424.54343172695184 2199.4242044280295 L 438.1561011436185 2206.230539136363 L 424.54343172695184 2213.0368738446964 Z"/><g transform="rotate(-2.376982453987206,0,0)"/></g></g><g><g><rect fill="white" stroke="none" x="98.18476589054559" y="2230.7333440863626" width="286.4180170446875" height="21.23576429"/></g><text fill="black" stroke="none" font-family="sans-serif" font-size="11pt" font-style="normal" font-weight="normal" text-decoration="normal" x="100.63504638554559" y="2245.4350270563627" text-anchor="start" dominant-baseline="alphabetic" xml:space="preserve">HTTP/1.1 200 OK  + album-art/ab(...)13.jpg</text></g><g><path fill="none" stroke="black" paint-order="fill stroke markers" d=" M 438.1561011436185 2249.644399715026 L 47.3539815654935 2265.8665906685715" stroke-miterlimit="10" stroke-width="1.3612669416666667" stroke-dasharray=""/><g transform="translate(44.631447682160164,2265.979603015026) rotate(-2.376982453987206,0,0) translate(-44.631447682160164,-2265.979603015026)"><path fill="black" stroke="none" paint-order="stroke fill markers" d=" M 58.244117098826834 2259.1732683066925 L 44.631447682160164 2265.979603015026 L 58.244117098826834 2272.7859377233594 Z"/><g transform="rotate(2.376982453987206,0,0)"/></g></g><g><g><rect fill="white" stroke="none" x="98.18476589054559" y="2290.4824079650257" width="286.4180170446875" height="21.23576429"/></g><text fill="black" stroke="none" font-family="sans-serif" font-size="11pt" font-style="normal" font-weight="normal" text-decoration="normal" x="100.63504638554559" y="2305.184090935026" text-anchor="start" dominant-baseline="alphabetic" xml:space="preserve">HTTP/1.1 200 OK  + album-art/ab(...)14.jpg</text></g><g><path fill="none" stroke="black" paint-order="fill stroke markers" d=" M 438.1561011436185 2309.393463593689 L 47.3539815654935 2325.6156545472345" stroke-miterlimit="10" stroke-width="1.3612669416666667" stroke-dasharray=""/><g transform="translate(44.631447682160164,2325.728666893689) rotate(-2.376982453987206,0,0) translate(-44.631447682160164,-2325.728666893689)"><path fill="black" stroke="none" paint-order="stroke fill markers" d=" M 58.244117098826834 2318.9223321853556 L 44.631447682160164 2325.728666893689 L 58.244117098826834 2332.5350016020225 Z"/><g transform="rotate(2.376982453987206,0,0)"/></g></g><g><g><rect fill="white" stroke="none" x="98.18476589054559" y="2350.2314718436887" width="286.4180170446875" height="21.23576429"/></g><text fill="black" stroke="none" font-family="sans-serif" font-size="11pt" font-style="normal" font-weight="normal" text-decoration="normal" x="100.63504638554559" y="2364.933154813689" text-anchor="start" dominant-baseline="alphabetic" xml:space="preserve">HTTP/1.1 200 OK  + album-art/ab(...)15.jpg</text></g><g><path fill="none" stroke="black" paint-order="fill stroke markers" d=" M 438.1561011436185 2369.142527472352 L 47.3539815654935 2385.3647184258975" stroke-miterlimit="10" stroke-width="1.3612669416666667" stroke-dasharray=""/><g transform="translate(44.631447682160164,2385.477730772352) rotate(-2.376982453987206,0,0) translate(-44.631447682160164,-2385.477730772352)"><path fill="black" stroke="none" paint-order="stroke fill markers" d=" M 58.244117098826834 2378.6713960640186 L 44.631447682160164 2385.477730772352 L 58.244117098826834 2392.2840654806855 Z"/><g transform="rotate(2.376982453987206,0,0)"/></g></g><g><g><rect fill="white" stroke="none" x="98.18476589054559" y="2409.9805357223518" width="286.4180170446875" height="21.23576429"/></g><text fill="black" stroke="none" font-family="sans-serif" font-size="11pt" font-style="normal" font-weight="normal" text-decoration="normal" x="100.63504638554559" y="2424.682218692352" text-anchor="start" dominant-baseline="alphabetic" xml:space="preserve">HTTP/1.1 200 OK  + album-art/ab(...)16.jpg</text></g><g><path fill="none" stroke="black" paint-order="fill stroke markers" d=" M 438.1561011436185 2428.891591351015 L 47.3539815654935 2445.1137823045606" stroke-miterlimit="10" stroke-width="1.3612669416666667" stroke-dasharray=""/><g transform="translate(44.631447682160164,2445.226794651015) rotate(-2.376982453987206,0,0) translate(-44.631447682160164,-2445.226794651015)"><path fill="black" stroke="none" paint-order="stroke fill markers" d=" M 58.244117098826834 2438.4204599426816 L 44.631447682160164 2445.226794651015 L 58.244117098826834 2452.0331293593485 Z"/><g transform="rotate(2.376982453987206,0,0)"/></g></g><g><g><rect fill="white" stroke="none" x="98.18476589054559" y="2469.729599601015" width="286.4180170446875" height="21.23576429"/></g><text fill="black" stroke="none" font-family="sans-serif" font-size="11pt" font-style="normal" font-weight="normal" text-decoration="normal" x="100.63504638554559" y="2484.431282571015" text-anchor="start" dominant-baseline="alphabetic" xml:space="preserve">HTTP/1.1 200 OK  + album-art/ab(...)17.jpg</text></g><g><path fill="none" stroke="black" paint-order="fill stroke markers" d=" M 438.1561011436185 2488.640655229678 L 47.3539815654935 2504.8628461832236" stroke-miterlimit="10" stroke-width="1.3612669416666667" stroke-dasharray=""/><g transform="translate(44.631447682160164,2504.975858529678) rotate(-2.376982453987206,0,0) translate(-44.631447682160164,-2504.975858529678)"><path fill="black" stroke="none" paint-order="stroke fill markers" d=" M 58.244117098826834 2498.1695238213447 L 44.631447682160164 2504.975858529678 L 58.244117098826834 2511.7821932380116 Z"/><g transform="rotate(2.376982453987206,0,0)"/></g></g><g><g><rect fill="white" stroke="none" x="98.18476589054559" y="2529.478663479678" width="286.4180170446875" height="21.23576429"/></g><text fill="black" stroke="none" font-family="sans-serif" font-size="11pt" font-style="normal" font-weight="normal" text-decoration="normal" x="100.63504638554559" y="2544.180346449678" text-anchor="start" dominant-baseline="alphabetic" xml:space="preserve">HTTP/1.1 200 OK  + album-art/ab(...)18.jpg</text></g><g><path fill="none" stroke="black" paint-order="fill stroke markers" d=" M 438.1561011436185 2548.389719108341 L 47.3539815654935 2564.6119100618866" stroke-miterlimit="10" stroke-width="1.3612669416666667" stroke-dasharray=""/><g transform="translate(44.631447682160164,2564.724922408341) rotate(-2.376982453987206,0,0) translate(-44.631447682160164,-2564.724922408341)"><path fill="black" stroke="none" paint-order="stroke fill markers" d=" M 58.244117098826834 2557.9185877000077 L 44.631447682160164 2564.724922408341 L 58.244117098826834 2571.5312571166746 Z"/><g transform="rotate(2.376982453987206,0,0)"/></g></g><g><g><rect fill="white" stroke="none" x="147.69083888859248" y="2589.227727358341" width="187.40587104859375" height="21.23576429"/></g><text fill="black" stroke="none" font-family="sans-serif" font-size="11pt" font-style="normal" font-weight="normal" text-decoration="normal" x="150.14111938359247" y="2603.929410328341" text-anchor="start" dominant-baseline="alphabetic" xml:space="preserve">GET /album-art/ab(...)19.jpg</text></g><g><path fill="none" stroke="black" paint-order="fill stroke markers" d=" M 44.631447682160164 2606.083786534064 L 435.4335672602852 2622.3059774876097" stroke-miterlimit="10" stroke-width="1.3612669416666667" stroke-dasharray=""/><g transform="translate(438.1561011436185,2622.418989834064) rotate(2.376982453987206,0,0) translate(-438.1561011436185,-2622.418989834064)"><path fill="black" stroke="none" paint-order="stroke fill markers" d=" M 424.54343172695184 2615.6126551257307 L 438.1561011436185 2622.418989834064 L 424.54343172695184 2629.2253245423976 Z"/><g transform="rotate(-2.376982453987206,0,0)"/></g></g><g><g><rect fill="white" stroke="none" x="147.69083888859248" y="2646.921794784064" width="187.40587104859375" height="21.23576429"/></g><text fill="black" stroke="none" font-family="sans-serif" font-size="11pt" font-style="normal" font-weight="normal" text-decoration="normal" x="150.14111938359247" y="2661.623477754064" text-anchor="start" dominant-baseline="alphabetic" xml:space="preserve">GET /album-art/ab(...)20.jpg</text></g><g><path fill="none" stroke="black" paint-order="fill stroke markers" d=" M 44.631447682160164 2663.777853959787 L 435.4335672602852 2680.0000449133327" stroke-miterlimit="10" stroke-width="1.3612669416666667" stroke-dasharray=""/><g transform="translate(438.1561011436185,2680.113057259787) rotate(2.376982453987206,0,0) translate(-438.1561011436185,-2680.113057259787)"><path fill="black" stroke="none" paint-order="stroke fill markers" d=" M 424.54343172695184 2673.3067225514537 L 438.1561011436185 2680.113057259787 L 424.54343172695184 2686.9193919681206 Z"/><g transform="rotate(-2.376982453987206,0,0)"/></g></g><g><g><rect fill="white" stroke="none" x="98.18476589054559" y="2704.615862209787" width="286.4180170446875" height="21.23576429"/></g><text fill="black" stroke="none" font-family="sans-serif" font-size="11pt" font-style="normal" font-weight="normal" text-decoration="normal" x="100.63504638554559" y="2719.317545179787" text-anchor="start" dominant-baseline="alphabetic" xml:space="preserve">HTTP/1.1 200 OK  + album-art/ab(...)19.jpg</text></g><g><path fill="none" stroke="black" paint-order="fill stroke markers" d=" M 438.1561011436185 2723.52691783845 L 47.3539815654935 2739.7491087919957" stroke-miterlimit="10" stroke-width="1.3612669416666667" stroke-dasharray=""/><g transform="translate(44.631447682160164,2739.86212113845) rotate(-2.376982453987206,0,0) translate(-44.631447682160164,-2739.86212113845)"><path fill="black" stroke="none" paint-order="stroke fill markers" d=" M 58.244117098826834 2733.0557864301168 L 44.631447682160164 2739.86212113845 L 58.244117098826834 2746.6684558467837 Z"/><g transform="rotate(2.376982453987206,0,0)"/></g></g><g><g><rect fill="white" stroke="none" x="98.18476589054559" y="2764.36492608845" width="286.4180170446875" height="21.23576429"/></g><text fill="black" stroke="none" font-family="sans-serif" font-size="11pt" font-style="normal" font-weight="normal" text-decoration="normal" x="100.63504638554559" y="2779.06660905845" text-anchor="start" dominant-baseline="alphabetic" xml:space="preserve">HTTP/1.1 200 OK  + album-art/ab(...)20.jpg</text></g><g><path fill="none" stroke="black" paint-order="fill stroke markers" d=" M 438.1561011436185 2783.275981717113 L 47.3539815654935 2799.4981726706587" stroke-miterlimit="10" stroke-width="1.3612669416666667" stroke-dasharray=""/><g transform="translate(44.631447682160164,2799.6111850171133) rotate(-2.376982453987206,0,0) translate(-44.631447682160164,-2799.6111850171133)"><path fill="black" stroke="none" paint-order="stroke fill markers" d=" M 58.244117098826834 2792.80485030878 L 44.631447682160164 2799.6111850171133 L 58.244117098826834 2806.4175197254467 Z"/><g transform="rotate(2.376982453987206,0,0)"/></g></g></g><g/><g/></g></svg>