<svg version="1.1" xmlns="http://www.w3.org/2000/svg" xmlns:xlink="http://www.w3.org/1999/xlink" width="992" height="3023"><defs/><g><g/><g/><g/><g/><g/><g/><g/><g/><g/><g/><g/><g/><g/><g/><g/><g/><g/><g/><g/><g/><g/><g/><g/><g/><g/><g/><g/><g/><g/><g/><g/><g/><g/><g/><g/><g/><g/><g/><g/><g/><g/><g/><g/><g/><g/><g/><g/><g/><g/><g/><g/><g><rect fill="white" stroke="none" x="0" y="0" width="992" height="3023"/></g><g><text fill="black" stroke="none" font-family="sans-serif" font-size="16.5pt" font-style="normal" font-weight="normal" text-decoration="normal" x="246.95985404278838" y="24.50280495" text-anchor="start" dominant-baseline="alphabetic" xml:space="preserve">Capture 2 - Valid credential and Album Art in cache</text></g><g/><g><path fill="none" stroke="black" paint-order="fill stroke markers" d=" M 44.631447682160164 95.887643371 L 44.631447682160164 3023.7324857983363" stroke-miterlimit="10" stroke-width="1.3612669416666667" stroke-dasharray="12.565541,5.445067766666667"/><path fill="none" stroke="black" paint-order="fill stroke markers" d=" M 386.8103980186185 95.887643371 L 386.8103980186185 3023.7324857983363" stroke-miterlimit="10" stroke-width="1.3612669416666667" stroke-dasharray="12.565541,5.445067766666667"/><path fill="none" stroke="black" paint-order="fill stroke markers" d=" M 930.2920216949205 95.887643371 L 930.2920216949205 3023.7324857983363" stroke-miterlimit="10" stroke-width="1.3612669416666667" stroke-dasharray="12.565541,5.445067766666667"/></g><g><path fill="none" stroke="none"/><g><path fill="white" stroke="black" paint-order="fill stroke markers" d=" M 8.167601650000002 51.782594461 L 81.09529371432032 51.782594461 L 81.09529371432032 95.887643371 L 8.167601650000002 95.887643371 L 8.167601650000002 51.782594461 Z" stroke-miterlimit="10" stroke-width="2.613632528" stroke-dasharray=""/></g><g><g/><text fill="black" stroke="none" font-family="sans-serif" font-size="11pt" font-style="normal" font-weight="normal" text-decoration="normal" x="25.891297230500008" y="79.55244007099999" text-anchor="start" dominant-baseline="alphabetic" xml:space="preserve">Client</text></g><path fill="none" stroke="none"/><g><path fill="white" stroke="black" paint-order="fill stroke markers" d=" M 347.497598739388 51.782594461 L 426.12319729784895 51.782594461 L 426.12319729784895 95.887643371 L 347.497598739388 95.887643371 L 347.497598739388 51.782594461 Z" stroke-miterlimit="10" stroke-width="2.613632528" stroke-dasharray=""/></g><g><g/><text fill="black" stroke="none" font-family="sans-serif" font-size="11pt" font-style="normal" font-weight="normal" text-decoration="normal" x="365.22129431988805" y="79.55244007099999" text-anchor="start" dominant-baseline="alphabetic" xml:space="preserve">Server</text></g><path fill="none" stroke="none"/><g><path fill="white" stroke="black" paint-order="fill stroke markers" d=" M 876.3084994542643 51.782594461 L 984.2755439355768 51.782594461 L 984.2755439355768 95.887643371 L 876.3084994542643 95.887643371 L 876.3084994542643 51.782594461 Z" stroke-miterlimit="10" stroke-width="2.613632528" stroke-dasharray=""/></g><g><g/><text fill="black" stroke="none" font-family="sans-serif" font-size="11pt" font-style="normal" font-weight="normal" text-decoration="normal" x="894.0321950347643" y="79.55244007099999" text-anchor="start" dominant-baseline="alphabetic" xml:space="preserve">Spotify API</text></g></g><g><g><g><rect fill="white" stroke="none" x="160.72947414249873" y="128.558049971" width="109.98289741578125" height="21.23576429"/></g><text fill="black" stroke="none" font-family="sans-serif" font-size="11pt" font-style="normal" font-weight="normal" text-decoration="normal" x="163.17975463749872" y="143.259732941" text-anchor="start" dominant-baseline="alphabetic" xml:space="preserve">GET /HTTP /1.1</text></g><g><path fill="none" stroke="black" paint-order="fill stroke markers" d=" M 44.631447682160164 144.13446352337536 L 384.0878641352852 160.33969639582082" stroke-miterlimit="10" stroke-width="1.3612669416666667" stroke-dasharray=""/><g transform="translate(386.8103980186185,160.46966682337535) rotate(2.733155204931307,0,0) translate(-386.8103980186185,-160.46966682337535)"><path fill="black" stroke="none" paint-order="stroke fill markers" d=" M 373.19772860195184 153.663332115042 L 386.8103980186185 160.46966682337535 L 373.19772860195184 167.2760015317087 Z"/><g transform="rotate(-2.733155204931307,0,0)"/></g></g><g><g><rect fill="white" stroke="none" x="112.85189540714715" y="184.97247177337533" width="205.73805488648438" height="21.23576429"/></g><text fill="black" stroke="none" font-family="sans-serif" font-size="11pt" font-style="normal" font-weight="normal" text-decoration="normal" x="115.30217590214716" y="199.6741547433753" text-anchor="start" dominant-baseline="alphabetic" xml:space="preserve">HTTP/1.1 200 OK  + main.thml</text></g><g><path fill="none" stroke="black" paint-order="fill stroke markers" d=" M 386.8103980186185 202.83450219781344 L 47.3539815654935 219.0397350702589" stroke-miterlimit="10" stroke-width="1.3612669416666667" stroke-dasharray=""/><g transform="translate(44.631447682160164,219.16970549781342) rotate(-2.733155204931307,0,0) translate(-44.631447682160164,-219.16970549781342)"><path fill="black" stroke="none" paint-order="stroke fill markers" d=" M 58.244117098826834 212.3633707894801 L 44.631447682160164 219.16970549781342 L 58.244117098826834 225.97604020614676 Z"/><g transform="rotate(2.733155204931307,0,0)"/></g></g><g><g><rect fill="white" stroke="none" x="134.22628505558467" y="243.67251044781344" width="162.98927558960938" height="21.23576429"/></g><text fill="black" stroke="none" font-family="sans-serif" font-size="11pt" font-style="normal" font-weight="normal" text-decoration="normal" x="136.67656555058466" y="258.37419341781344" text-anchor="start" dominant-baseline="alphabetic" xml:space="preserve">GET /images/banner.jpg</text></g><g><path fill="none" stroke="black" paint-order="fill stroke markers" d=" M 44.631447682160164 260.5141537327816 L 384.0878641352852 276.71938660522704" stroke-miterlimit="10" stroke-width="1.3612669416666667" stroke-dasharray=""/><g transform="translate(386.8103980186185,276.8493570327816) rotate(2.733155204931307,0,0) translate(-386.8103980186185,-276.8493570327816)"><path fill="black" stroke="none" paint-order="stroke fill markers" d=" M 373.19772860195184 270.04302232444826 L 386.8103980186185 276.8493570327816 L 373.19772860195184 283.65569174111494 Z"/><g transform="rotate(-2.733155204931307,0,0)"/></g></g><g><g><rect fill="white" stroke="none" x="110.38590724796747" y="301.35216198278164" width="210.67003120484375" height="21.23576429"/></g><text fill="black" stroke="none" font-family="sans-serif" font-size="11pt" font-style="normal" font-weight="normal" text-decoration="normal" x="112.83618774296747" y="316.0538449527816" text-anchor="start" dominant-baseline="alphabetic" xml:space="preserve">HTTP/1.1 200 OK  + banner.jpg</text></g><g><path fill="none" stroke="black" paint-order="fill stroke markers" d=" M 386.8103980186185 319.3319156566364 L 47.3539815654935 335.53714852908183" stroke-miterlimit="10" stroke-width="1.3612669416666667" stroke-dasharray=""/><g transform="translate(44.631447682160164,335.6671189566364) rotate(-2.733155204931307,0,0) translate(-44.631447682160164,-335.6671189566364)"><path fill="black" stroke="none" paint-order="stroke fill markers" d=" M 58.244117098826834 328.86078424830305 L 44.631447682160164 335.6671189566364 L 58.244117098826834 342.4734536649697 Z"/><g transform="rotate(2.733155204931307,0,0)"/></g></g><g><g><rect fill="white" stroke="none" x="88.417409017987" y="360.16992390663637" width="254.6070276648047" height="21.23576429"/></g><text fill="black" stroke="none" font-family="sans-serif" font-size="11pt" font-style="normal" font-weight="normal" text-decoration="normal" x="90.867689512987" y="374.87160687663635" text-anchor="start" dominant-baseline="alphabetic" xml:space="preserve">GET /search?artist=eminem HTTP/1.1</text></g><g><path fill="none" stroke="black" paint-order="fill stroke markers" d=" M 44.631447682160164 379.19842673478473 L 384.0878641352852 395.40365960723017" stroke-miterlimit="10" stroke-width="1.3612669416666667" stroke-dasharray=""/><g transform="translate(386.8103980186185,395.5336300347847) rotate(2.733155204931307,0,0) translate(-386.8103980186185,-395.5336300347847)"><path fill="black" stroke="none" paint-order="stroke fill markers" d=" M 373.19772860195184 388.7272953264514 L 386.8103980186185 395.5336300347847 L 373.19772860195184 402.33996474311806 Z"/><g transform="rotate(-2.733155204931307,0,0)"/></g></g><g><g><rect fill="white" stroke="none" x="406.14038859028506" y="420.0364349847847" width="270.2261988073828" height="21.23576429"/></g><g><rect fill="white" stroke="none" x="406.14038859028506" y="436.3716382847847" width="504.8216425329687" height="21.23576429"/></g><text fill="black" stroke="none" font-family="sans-serif" font-size="11pt" font-style="normal" font-weight="normal" text-decoration="normal" x="408.59066908528507" y="434.7381179547847" text-anchor="start" dominant-baseline="alphabetic" xml:space="preserve">GET https:</text><text fill="black" stroke="none" font-family="sans-serif" font-size="11pt" font-style="normal" font-weight="normal" text-decoration="normal" x="478.65509169270695" y="434.7381179547847" text-anchor="start" dominant-baseline="alphabetic" xml:space="preserve">//</text><text fill="black" stroke="none" font-family="sans-serif" font-size="11pt" font-style="normal" font-weight="normal" text-decoration="normal" x="486.80111830403507" y="434.7381179547847" text-anchor="start" dominant-baseline="alphabetic" xml:space="preserve">api.spotify.com/v1  HTTP/1.1</text><text fill="black" stroke="none" font-family="sans-serif" font-size="11pt" font-style="normal" font-weight="normal" text-decoration="normal" x="408.59066908528507" y="451.0733212547847" text-anchor="start" dominant-baseline="alphabetic" xml:space="preserve">/q?artist=eminem&amp;type=album&amp;access_token=BQB_M9Y43HnFj9yV1jqES...</text></g><g><path fill="none" stroke="black" paint-order="fill stroke markers" d=" M 386.8103980186185 456.9527619387381 L 927.5694878115872 473.20613515923225" stroke-miterlimit="10" stroke-width="1.3612669416666667" stroke-dasharray=""/><g transform="translate(930.2920216949205,473.2879652387381) rotate(1.7215973397583964,0,0) translate(-930.2920216949205,-473.2879652387381)"><path fill="black" stroke="none" paint-order="stroke fill markers" d=" M 916.6793522782539 466.48163053040474 L 930.2920216949205 473.2879652387381 L 916.6793522782539 480.0942999470714 Z"/><g transform="rotate(-1.7215973397583964,0,0)"/></g></g><g><g><rect fill="white" stroke="none" x="519.01074991841" y="497.79077018873807" width="279.0809198767187" height="21.23576429"/></g><text fill="black" stroke="none" font-family="sans-serif" font-size="11pt" font-style="normal" font-weight="normal" text-decoration="normal" x="521.4610304134101" y="512.492453158738" text-anchor="start" dominant-baseline="alphabetic" xml:space="preserve"> HTTP/1.1 200 OK + Spotify Album Object</text></g><g><path fill="none" stroke="black" paint-order="fill stroke markers" d=" M 930.2920216949205 514.9793958841266 L 389.5329319019518 531.2327691046207" stroke-miterlimit="10" stroke-width="1.3612669416666667" stroke-dasharray=""/><g transform="translate(386.8103980186185,531.3145991841266) rotate(-1.7215973397583964,0,0) translate(-386.8103980186185,-531.3145991841266)"><path fill="black" stroke="none" paint-order="stroke fill markers" d=" M 400.4230674352852 524.5082644757932 L 386.8103980186185 531.3145991841266 L 400.4230674352852 538.1209338924599 Z"/><g transform="rotate(1.7215973397583964,0,0)"/></g></g><g><g><rect fill="white" stroke="none" x="63.96143825382684" y="555.8174041341265" width="303.518969193125" height="21.23576429"/></g><text fill="black" stroke="none" font-family="sans-serif" font-size="11pt" font-style="normal" font-weight="normal" text-decoration="normal" x="66.41171874882684" y="570.5190871041265" text-anchor="start" dominant-baseline="alphabetic" xml:space="preserve">HTTP/1.1 200 OK  + text/html with image tags</text></g><g><path fill="none" stroke="black" paint-order="fill stroke markers" d=" M 386.8103980186185 576.0134050036903 L 47.3539815654935 592.2186378761357" stroke-miterlimit="10" stroke-width="1.3612669416666667" stroke-dasharray=""/><g transform="translate(44.631447682160164,592.3486083036903) rotate(-2.733155204931307,0,0) translate(-44.631447682160164,-592.3486083036903)"><path fill="black" stroke="none" paint-order="stroke fill markers" d=" M 58.244117098826834 585.542273595357 L 44.631447682160164 592.3486083036903 L 58.244117098826834 599.1549430120236 Z"/><g transform="rotate(2.733155204931307,0,0)"/></g></g><g><g><rect fill="white" stroke="none" x="126.09457881779169" y="616.8514132536903" width="179.25268806519531" height="21.23576429"/></g><text fill="black" stroke="none" font-family="sans-serif" font-size="11pt" font-style="normal" font-weight="normal" text-decoration="normal" x="128.5448593127917" y="631.5530962236903" text-anchor="start" dominant-baseline="alphabetic" xml:space="preserve">GET /album-art/ab(...)1.jpg</text></g><g><path fill="none" stroke="black" paint-order="fill stroke markers" d=" M 44.631447682160164 634.0812542183802 L 384.0878641352852 650.2864870908256" stroke-miterlimit="10" stroke-width="1.3612669416666667" stroke-dasharray=""/><g transform="translate(386.8103980186185,650.4164575183802) rotate(2.733155204931307,0,0) translate(-386.8103980186185,-650.4164575183802)"><path fill="black" stroke="none" paint-order="stroke fill markers" d=" M 373.19772860195184 643.6101228100468 L 386.8103980186185 650.4164575183802 L 373.19772860195184 657.2227922267135 Z"/><g transform="rotate(-2.733155204931307,0,0)"/></g></g><g><g><rect fill="white" stroke="none" x="126.09457881779169" y="674.9192624683802" width="179.25268806519531" height="21.23576429"/></g><text fill="black" stroke="none" font-family="sans-serif" font-size="11pt" font-style="normal" font-weight="normal" text-decoration="normal" x="128.5448593127917" y="689.6209454383802" text-anchor="start" dominant-baseline="alphabetic" xml:space="preserve">GET /album-art/ab(...)2.jpg</text></g><g><path fill="none" stroke="black" paint-order="fill stroke markers" d=" M 44.631447682160164 692.1491034330701 L 384.0878641352852 708.3543363055155" stroke-miterlimit="10" stroke-width="1.3612669416666667" stroke-dasharray=""/><g transform="translate(386.8103980186185,708.4843067330701) rotate(2.733155204931307,0,0) translate(-386.8103980186185,-708.4843067330701)"><path fill="black" stroke="none" paint-order="stroke fill markers" d=" M 373.19772860195184 701.6779720247367 L 386.8103980186185 708.4843067330701 L 373.19772860195184 715.2906414414034 Z"/><g transform="rotate(-2.733155204931307,0,0)"/></g></g><g><g><rect fill="white" stroke="none" x="76.58849819035028" y="732.98711168307" width="278.2648493200781" height="21.23576429"/></g><text fill="black" stroke="none" font-family="sans-serif" font-size="11pt" font-style="normal" font-weight="normal" text-decoration="normal" x="79.03877868535028" y="747.68879465307" text-anchor="start" dominant-baseline="alphabetic" xml:space="preserve">HTTP/1.1 200 OK  + album-art/ab(...)1.jpg</text></g><g><path fill="none" stroke="black" paint-order="fill stroke markers" d=" M 386.8103980186185 752.5803122022862 L 47.3539815654935 768.7855450747317" stroke-miterlimit="10" stroke-width="1.3612669416666667" stroke-dasharray=""/><g transform="translate(44.631447682160164,768.9155155022862) rotate(-2.733155204931307,0,0) translate(-44.631447682160164,-768.9155155022862)"><path fill="black" stroke="none" paint-order="stroke fill markers" d=" M 58.244117098826834 762.1091807939529 L 44.631447682160164 768.9155155022862 L 58.244117098826834 775.7218502106196 Z"/><g transform="rotate(2.733155204931307,0,0)"/></g></g><g><g><rect fill="white" stroke="none" x="76.58849819035028" y="793.4183204522861" width="278.2648493200781" height="21.23576429"/></g><text fill="black" stroke="none" font-family="sans-serif" font-size="11pt" font-style="normal" font-weight="normal" text-decoration="normal" x="79.03877868535028" y="808.1200034222861" text-anchor="start" dominant-baseline="alphabetic" xml:space="preserve">HTTP/1.1 200 OK  + album-art/ab(...)2.jpg</text></g><g><path fill="none" stroke="black" paint-order="fill stroke markers" d=" M 386.8103980186185 813.0115209715024 L 47.3539815654935 829.2167538439478" stroke-miterlimit="10" stroke-width="1.3612669416666667" stroke-dasharray=""/><g transform="translate(44.631447682160164,829.3467242715024) rotate(-2.733155204931307,0,0) translate(-44.631447682160164,-829.3467242715024)"><path fill="black" stroke="none" paint-order="stroke fill markers" d=" M 58.244117098826834 822.540389563169 L 44.631447682160164 829.3467242715024 L 58.244117098826834 836.1530589798357 Z"/><g transform="rotate(2.733155204931307,0,0)"/></g></g><g><g><rect fill="white" stroke="none" x="126.09457881779169" y="853.8495292215024" width="179.25268806519531" height="21.23576429"/></g><text fill="black" stroke="none" font-family="sans-serif" font-size="11pt" font-style="normal" font-weight="normal" text-decoration="normal" x="128.5448593127917" y="868.5512121915024" text-anchor="start" dominant-baseline="alphabetic" xml:space="preserve">GET /album-art/ab(...)3.jpg</text></g><g><path fill="none" stroke="black" paint-order="fill stroke markers" d=" M 44.631447682160164 871.0793701861923 L 384.0878641352852 887.2846030586377" stroke-miterlimit="10" stroke-width="1.3612669416666667" stroke-dasharray=""/><g transform="translate(386.8103980186185,887.4145734861922) rotate(2.733155204931307,0,0) translate(-386.8103980186185,-887.4145734861922)"><path fill="black" stroke="none" paint-order="stroke fill markers" d=" M 373.19772860195184 880.6082387778589 L 386.8103980186185 887.4145734861922 L 373.19772860195184 894.2209081945256 Z"/><g transform="rotate(-2.733155204931307,0,0)"/></g></g><g><g><rect fill="white" stroke="none" x="76.58849819035028" y="911.9173784361922" width="278.2648493200781" height="21.23576429"/></g><text fill="black" stroke="none" font-family="sans-serif" font-size="11pt" font-style="normal" font-weight="normal" text-decoration="normal" x="79.03877868535028" y="926.6190614061921" text-anchor="start" dominant-baseline="alphabetic" xml:space="preserve">HTTP/1.1 200 OK  + album-art/ab(...)3.jpg</text></g><g><path fill="none" stroke="black" paint-order="fill stroke markers" d=" M 386.8103980186185 931.5105789554084 L 47.3539815654935 947.7158118278538" stroke-miterlimit="10" stroke-width="1.3612669416666667" stroke-dasharray=""/><g transform="translate(44.631447682160164,947.8457822554084) rotate(-2.733155204931307,0,0) translate(-44.631447682160164,-947.8457822554084)"><path fill="black" stroke="none" paint-order="stroke fill markers" d=" M 58.244117098826834 941.039447547075 L 44.631447682160164 947.8457822554084 L 58.244117098826834 954.6521169637417 Z"/><g transform="rotate(2.733155204931307,0,0)"/></g></g><g><g><rect fill="white" stroke="none" x="126.09457881779169" y="972.3485872054084" width="179.25268806519531" height="21.23576429"/></g><text fill="black" stroke="none" font-family="sans-serif" font-size="11pt" font-style="normal" font-weight="normal" text-decoration="normal" x="128.5448593127917" y="987.0502701754084" text-anchor="start" dominant-baseline="alphabetic" xml:space="preserve">GET /album-art/ab(...)4.jpg</text></g><g><path fill="none" stroke="black" paint-order="fill stroke markers" d=" M 44.631447682160164 989.5784281700983 L 384.0878641352852 1005.7836610425437" stroke-miterlimit="10" stroke-width="1.3612669416666667" stroke-dasharray=""/><g transform="translate(386.8103980186185,1005.9136314700983) rotate(2.733155204931307,0,0) translate(-386.8103980186185,-1005.9136314700983)"><path fill="black" stroke="none" paint-order="stroke fill markers" d=" M 373.19772860195184 999.1072967617649 L 386.8103980186185 1005.9136314700983 L 373.19772860195184 1012.7199661784316 Z"/><g transform="rotate(-2.733155204931307,0,0)"/></g></g><g><g><rect fill="white" stroke="none" x="126.09457881779169" y="1030.416436420098" width="179.25268806519531" height="21.23576429"/></g><text fill="black" stroke="none" font-family="sans-serif" font-size="11pt" font-style="normal" font-weight="normal" text-decoration="normal" x="128.5448593127917" y="1045.1181193900982" text-anchor="start" dominant-baseline="alphabetic" xml:space="preserve">GET /album-art/ab(...)5.jpg</text></g><g><path fill="none" stroke="black" paint-order="fill stroke markers" d=" M 44.631447682160164 1047.646277384788 L 384.0878641352852 1063.8515102572335" stroke-miterlimit="10" stroke-width="1.3612669416666667" stroke-dasharray=""/><g transform="translate(386.8103980186185,1063.981480684788) rotate(2.733155204931307,0,0) translate(-386.8103980186185,-1063.981480684788)"><path fill="black" stroke="none" paint-order="stroke fill markers" d=" M 373.19772860195184 1057.1751459764548 L 386.8103980186185 1063.981480684788 L 373.19772860195184 1070.7878153931213 Z"/><g transform="rotate(-2.733155204931307,0,0)"/></g></g><g><g><rect fill="white" stroke="none" x="126.09457881779169" y="1088.484285634788" width="179.25268806519531" height="21.23576429"/></g><text fill="black" stroke="none" font-family="sans-serif" font-size="11pt" font-style="normal" font-weight="normal" text-decoration="normal" x="128.5448593127917" y="1103.185968604788" text-anchor="start" dominant-baseline="alphabetic" xml:space="preserve">GET /album-art/ab(...)6.jpg</text></g><g><path fill="none" stroke="black" paint-order="fill stroke markers" d=" M 44.631447682160164 1105.7141265994778 L 384.0878641352852 1121.9193594719234" stroke-miterlimit="10" stroke-width="1.3612669416666667" stroke-dasharray=""/><g transform="translate(386.8103980186185,1122.049329899478) rotate(2.733155204931307,0,0) translate(-386.8103980186185,-1122.049329899478)"><path fill="black" stroke="none" paint-order="stroke fill markers" d=" M 373.19772860195184 1115.2429951911447 L 386.8103980186185 1122.049329899478 L 373.19772860195184 1128.8556646078111 Z"/><g transform="rotate(-2.733155204931307,0,0)"/></g></g><g><g><rect fill="white" stroke="none" x="126.09457881779169" y="1146.5521348494779" width="179.25268806519531" height="21.23576429"/></g><text fill="black" stroke="none" font-family="sans-serif" font-size="11pt" font-style="normal" font-weight="normal" text-decoration="normal" x="128.5448593127917" y="1161.253817819478" text-anchor="start" dominant-baseline="alphabetic" xml:space="preserve">GET /album-art/ab(...)7.jpg</text></g><g><path fill="none" stroke="black" paint-order="fill stroke markers" d=" M 44.631447682160164 1163.7819758141677 L 384.0878641352852 1179.9872086866133" stroke-miterlimit="10" stroke-width="1.3612669416666667" stroke-dasharray=""/><g transform="translate(386.8103980186185,1180.1171791141678) rotate(2.733155204931307,0,0) translate(-386.8103980186185,-1180.1171791141678)"><path fill="black" stroke="none" paint-order="stroke fill markers" d=" M 373.19772860195184 1173.3108444058346 L 386.8103980186185 1180.1171791141678 L 373.19772860195184 1186.923513822501 Z"/><g transform="rotate(-2.733155204931307,0,0)"/></g></g><g><g><rect fill="white" stroke="none" x="126.09457881779169" y="1204.6199840641677" width="179.25268806519531" height="21.23576429"/></g><text fill="black" stroke="none" font-family="sans-serif" font-size="11pt" font-style="normal" font-weight="normal" text-decoration="normal" x="128.5448593127917" y="1219.3216670341678" text-anchor="start" dominant-baseline="alphabetic" xml:space="preserve">GET /album-art/ab(...)8.jpg</text></g><g><path fill="none" stroke="black" paint-order="fill stroke markers" d=" M 44.631447682160164 1221.8498250288576 L 384.0878641352852 1238.0550579013031" stroke-miterlimit="10" stroke-width="1.3612669416666667" stroke-dasharray=""/><g transform="translate(386.8103980186185,1238.1850283288577) rotate(2.733155204931307,0,0) translate(-386.8103980186185,-1238.1850283288577)"><path fill="black" stroke="none" paint-order="stroke fill markers" d=" M 373.19772860195184 1231.3786936205245 L 386.8103980186185 1238.1850283288577 L 373.19772860195184 1244.991363037191 Z"/><g transform="rotate(-2.733155204931307,0,0)"/></g></g><g><g><rect fill="white" stroke="none" x="126.09457881779169" y="1262.6878332788576" width="179.25268806519531" height="21.23576429"/></g><text fill="black" stroke="none" font-family="sans-serif" font-size="11pt" font-style="normal" font-weight="normal" text-decoration="normal" x="128.5448593127917" y="1277.3895162488577" text-anchor="start" dominant-baseline="alphabetic" xml:space="preserve">GET /album-art/ab(...)9.jpg</text></g><g><path fill="none" stroke="black" paint-order="fill stroke markers" d=" M 44.631447682160164 1279.9176742435475 L 384.0878641352852 1296.122907115993" stroke-miterlimit="10" stroke-width="1.3612669416666667" stroke-dasharray=""/><g transform="translate(386.8103980186185,1296.2528775435476) rotate(2.733155204931307,0,0) translate(-386.8103980186185,-1296.2528775435476)"><path fill="black" stroke="none" paint-order="stroke fill markers" d=" M 373.19772860195184 1289.4465428352144 L 386.8103980186185 1296.2528775435476 L 373.19772860195184 1303.0592122518808 Z"/><g transform="rotate(-2.733155204931307,0,0)"/></g></g><g><g><rect fill="white" stroke="none" x="76.58849819035028" y="1320.7556824935477" width="278.2648493200781" height="21.23576429"/></g><text fill="black" stroke="none" font-family="sans-serif" font-size="11pt" font-style="normal" font-weight="normal" text-decoration="normal" x="79.03877868535028" y="1335.4573654635478" text-anchor="start" dominant-baseline="alphabetic" xml:space="preserve">HTTP/1.1 200 OK  + album-art/ab(...)4.jpg</text></g><g><path fill="none" stroke="black" paint-order="fill stroke markers" d=" M 386.8103980186185 1340.3488830127637 L 47.3539815654935 1356.5541158852093" stroke-miterlimit="10" stroke-width="1.3612669416666667" stroke-dasharray=""/><g transform="translate(44.631447682160164,1356.6840863127638) rotate(-2.733155204931307,0,0) translate(-44.631447682160164,-1356.6840863127638)"><path fill="black" stroke="none" paint-order="stroke fill markers" d=" M 58.244117098826834 1349.8777516044306 L 44.631447682160164 1356.6840863127638 L 58.244117098826834 1363.490421021097 Z"/><g transform="rotate(2.733155204931307,0,0)"/></g></g><g><g><rect fill="white" stroke="none" x="76.58849819035028" y="1381.186891262764" width="278.2648493200781" height="21.23576429"/></g><text fill="black" stroke="none" font-family="sans-serif" font-size="11pt" font-style="normal" font-weight="normal" text-decoration="normal" x="79.03877868535028" y="1395.888574232764" text-anchor="start" dominant-baseline="alphabetic" xml:space="preserve">HTTP/1.1 200 OK  + album-art/ab(...)5.jpg</text></g><g><path fill="none" stroke="black" paint-order="fill stroke markers" d=" M 386.8103980186185 1400.78009178198 L 47.3539815654935 1416.9853246544255" stroke-miterlimit="10" stroke-width="1.3612669416666667" stroke-dasharray=""/><g transform="translate(44.631447682160164,1417.11529508198) rotate(-2.733155204931307,0,0) translate(-44.631447682160164,-1417.11529508198)"><path fill="black" stroke="none" paint-order="stroke fill markers" d=" M 58.244117098826834 1410.3089603736469 L 44.631447682160164 1417.11529508198 L 58.244117098826834 1423.9216297903133 Z"/><g transform="rotate(2.733155204931307,0,0)"/></g></g><g><g><rect fill="white" stroke="none" x="76.58849819035028" y="1441.6181000319802" width="278.2648493200781" height="21.23576429"/></g><text fill="black" stroke="none" font-family="sans-serif" font-size="11pt" font-style="normal" font-weight="normal" text-decoration="normal" x="79.03877868535028" y="1456.3197830019803" text-anchor="start" dominant-baseline="alphabetic" xml:space="preserve">HTTP/1.1 200 OK  + album-art/ab(...)6.jpg</text></g><g><path fill="none" stroke="black" paint-order="fill stroke markers" d=" M 386.8103980186185 1461.2113005511962 L 47.3539815654935 1477.4165334236418" stroke-miterlimit="10" stroke-width="1.3612669416666667" stroke-dasharray=""/><g transform="translate(44.631447682160164,1477.5465038511963) rotate(-2.733155204931307,0,0) translate(-44.631447682160164,-1477.5465038511963)"><path fill="black" stroke="none" paint-order="stroke fill markers" d=" M 58.244117098826834 1470.7401691428631 L 44.631447682160164 1477.5465038511963 L 58.244117098826834 1484.3528385595296 Z"/><g transform="rotate(2.733155204931307,0,0)"/></g></g><g><g><rect fill="white" stroke="none" x="76.58849819035028" y="1502.0493088011965" width="278.2648493200781" height="21.23576429"/></g><text fill="black" stroke="none" font-family="sans-serif" font-size="11pt" font-style="normal" font-weight="normal" text-decoration="normal" x="79.03877868535028" y="1516.7509917711966" text-anchor="start" dominant-baseline="alphabetic" xml:space="preserve">HTTP/1.1 200 OK  + album-art/ab(...)7.jpg</text></g><g><path fill="none" stroke="black" paint-order="fill stroke markers" d=" M 386.8103980186185 1521.6425093204125 L 47.3539815654935 1537.847742192858" stroke-miterlimit="10" stroke-width="1.3612669416666667" stroke-dasharray=""/><g transform="translate(44.631447682160164,1537.9777126204126) rotate(-2.733155204931307,0,0) translate(-44.631447682160164,-1537.9777126204126)"><path fill="black" stroke="none" paint-order="stroke fill markers" d=" M 58.244117098826834 1531.1713779120794 L 44.631447682160164 1537.9777126204126 L 58.244117098826834 1544.7840473287458 Z"/><g transform="rotate(2.733155204931307,0,0)"/></g></g><g><g><rect fill="white" stroke="none" x="76.58849819035028" y="1562.4805175704128" width="278.2648493200781" height="21.23576429"/></g><text fill="black" stroke="none" font-family="sans-serif" font-size="11pt" font-style="normal" font-weight="normal" text-decoration="normal" x="79.03877868535028" y="1577.1822005404129" text-anchor="start" dominant-baseline="alphabetic" xml:space="preserve">HTTP/1.1 200 OK  + album-art/ab(...)8.jpg</text></g><g><path fill="none" stroke="black" paint-order="fill stroke markers" d=" M 386.8103980186185 1582.0737180896288 L 47.3539815654935 1598.2789509620743" stroke-miterlimit="10" stroke-width="1.3612669416666667" stroke-dasharray=""/><g transform="translate(44.631447682160164,1598.4089213896289) rotate(-2.733155204931307,0,0) translate(-44.631447682160164,-1598.4089213896289)"><path fill="black" stroke="none" paint-order="stroke fill markers" d=" M 58.244117098826834 1591.6025866812956 L 44.631447682160164 1598.4089213896289 L 58.244117098826834 1605.215256097962 Z"/><g transform="rotate(2.733155204931307,0,0)"/></g></g><g><g><rect fill="white" stroke="none" x="76.58849819035028" y="1622.911726339629" width="278.2648493200781" height="21.23576429"/></g><text fill="black" stroke="none" font-family="sans-serif" font-size="11pt" font-style="normal" font-weight="normal" text-decoration="normal" x="79.03877868535028" y="1637.613409309629" text-anchor="start" dominant-baseline="alphabetic" xml:space="preserve">HTTP/1.1 200 OK  + album-art/ab(...)9.jpg</text></g><g><path fill="none" stroke="black" paint-order="fill stroke markers" d=" M 386.8103980186185 1642.504926858845 L 47.3539815654935 1658.7101597312906" stroke-miterlimit="10" stroke-width="1.3612669416666667" stroke-dasharray=""/><g transform="translate(44.631447682160164,1658.840130158845) rotate(-2.733155204931307,0,0) translate(-44.631447682160164,-1658.840130158845)"><path fill="black" stroke="none" paint-order="stroke fill markers" d=" M 58.244117098826834 1652.033795450512 L 44.631447682160164 1658.840130158845 L 58.244117098826834 1665.6464648671783 Z"/><g transform="rotate(2.733155204931307,0,0)"/></g></g><g><g><rect fill="white" stroke="none" x="122.01798732609247" y="1683.342935108845" width="187.40587104859375" height="21.23576429"/></g><text fill="black" stroke="none" font-family="sans-serif" font-size="11pt" font-style="normal" font-weight="normal" text-decoration="normal" x="124.46826782109247" y="1698.0446180788451" text-anchor="start" dominant-baseline="alphabetic" xml:space="preserve">GET /album-art/ab(...)10.jpg</text></g><g><path fill="none" stroke="black" paint-order="fill stroke markers" d=" M 44.631447682160164 1700.7673875501393 L 384.0878641352852 1716.972620422585" stroke-miterlimit="10" stroke-width="1.3612669416666667" stroke-dasharray=""/><g transform="translate(386.8103980186185,1717.1025908501394) rotate(2.733155204931307,0,0) translate(-386.8103980186185,-1717.1025908501394)"><path fill="black" stroke="none" paint-order="stroke fill markers" d=" M 373.19772860195184 1710.2962561418062 L 386.8103980186185 1717.1025908501394 L 373.19772860195184 1723.9089255584727 Z"/><g transform="rotate(-2.733155204931307,0,0)"/></g></g><g><g><rect fill="white" stroke="none" x="122.56201656193231" y="1741.6053958001396" width="186.31781257691406" height="21.23576429"/></g><text fill="black" stroke="none" font-family="sans-serif" font-size="11pt" font-style="normal" font-weight="normal" text-decoration="normal" x="125.01229705693231" y="1756.3070787701397" text-anchor="start" dominant-baseline="alphabetic" xml:space="preserve">GET /album-art/ab(...)11.jpg</text></g><g><path fill="none" stroke="black" paint-order="fill stroke markers" d=" M 44.631447682160164 1759.0038769531361 L 384.0878641352852 1775.2091098255817" stroke-miterlimit="10" stroke-width="1.3612669416666667" stroke-dasharray=""/><g transform="translate(386.8103980186185,1775.3390802531362) rotate(2.733155204931307,0,0) translate(-386.8103980186185,-1775.3390802531362)"><path fill="black" stroke="none" paint-order="stroke fill markers" d=" M 373.19772860195184 1768.532745544803 L 386.8103980186185 1775.3390802531362 L 373.19772860195184 1782.1454149614694 Z"/><g transform="rotate(-2.733155204931307,0,0)"/></g></g><g><g><rect fill="white" stroke="none" x="122.01798732609247" y="1799.8418852031361" width="187.40587104859375" height="21.23576429"/></g><text fill="black" stroke="none" font-family="sans-serif" font-size="11pt" font-style="normal" font-weight="normal" text-decoration="normal" x="124.46826782109247" y="1814.5435681731362" text-anchor="start" dominant-baseline="alphabetic" xml:space="preserve">GET /album-art/ab(...)12.jpg</text></g><g><path fill="none" stroke="black" paint-order="fill stroke markers" d=" M 44.631447682160164 1817.2663376444305 L 384.0878641352852 1833.471570516876" stroke-miterlimit="10" stroke-width="1.3612669416666667" stroke-dasharray=""/><g transform="translate(386.8103980186185,1833.6015409444306) rotate(2.733155204931307,0,0) translate(-386.8103980186185,-1833.6015409444306)"><path fill="black" stroke="none" paint-order="stroke fill markers" d=" M 373.19772860195184 1826.7952062360973 L 386.8103980186185 1833.6015409444306 L 373.19772860195184 1840.4078756527638 Z"/><g transform="rotate(-2.733155204931307,0,0)"/></g></g><g><g><rect fill="white" stroke="none" x="72.51191432804559" y="1858.1043458944305" width="286.4180170446875" height="21.23576429"/></g><text fill="black" stroke="none" font-family="sans-serif" font-size="11pt" font-style="normal" font-weight="normal" text-decoration="normal" x="74.96219482304559" y="1872.8060288644306" text-anchor="start" dominant-baseline="alphabetic" xml:space="preserve">HTTP/1.1 200 OK  + album-art/ab(...)10.jpg</text></g><g><path fill="none" stroke="black" paint-order="fill stroke markers" d=" M 386.8103980186185 1877.892157526033 L 47.3539815654935 1894.0973903984786" stroke-miterlimit="10" stroke-width="1.3612669416666667" stroke-dasharray=""/><g transform="translate(44.631447682160164,1894.2273608260332) rotate(-2.733155204931307,0,0) translate(-44.631447682160164,-1894.2273608260332)"><path fill="black" stroke="none" paint-order="stroke fill markers" d=" M 58.244117098826834 1887.4210261177 L 44.631447682160164 1894.2273608260332 L 58.244117098826834 1901.0336955343664 Z"/><g transform="rotate(2.733155204931307,0,0)"/></g></g><g><g><rect fill="white" stroke="none" x="73.0559359344909" y="1918.7301657760331" width="285.32997383179685" height="21.23576429"/></g><text fill="black" stroke="none" font-family="sans-serif" font-size="11pt" font-style="normal" font-weight="normal" text-decoration="normal" x="75.5062164294909" y="1933.4318487460332" text-anchor="start" dominant-baseline="alphabetic" xml:space="preserve">HTTP/1.1 200 OK  + album-art/ab(...)11.jpg</text></g><g><path fill="none" stroke="black" paint-order="fill stroke markers" d=" M 386.8103980186185 1938.492006483556 L 47.3539815654935 1954.6972393560015" stroke-miterlimit="10" stroke-width="1.3612669416666667" stroke-dasharray=""/><g transform="translate(44.631447682160164,1954.827209783556) rotate(-2.733155204931307,0,0) translate(-44.631447682160164,-1954.827209783556)"><path fill="black" stroke="none" paint-order="stroke fill markers" d=" M 58.244117098826834 1948.0208750752229 L 44.631447682160164 1954.827209783556 L 58.244117098826834 1961.6335444918893 Z"/><g transform="rotate(2.733155204931307,0,0)"/></g></g><g><g><rect fill="white" stroke="none" x="72.51191432804559" y="1979.330014733556" width="286.4180170446875" height="21.23576429"/></g><text fill="black" stroke="none" font-family="sans-serif" font-size="11pt" font-style="normal" font-weight="normal" text-decoration="normal" x="74.96219482304559" y="1994.0316977035561" text-anchor="start" dominant-baseline="alphabetic" xml:space="preserve">HTTP/1.1 200 OK  + album-art/ab(...)12.jpg</text></g><g><path fill="none" stroke="black" paint-order="fill stroke markers" d=" M 386.8103980186185 1999.1178263651586 L 47.3539815654935 2015.3230592376042" stroke-miterlimit="10" stroke-width="1.3612669416666667" stroke-dasharray=""/><g transform="translate(44.631447682160164,2015.4530296651587) rotate(-2.733155204931307,0,0) translate(-44.631447682160164,-2015.4530296651587)"><path fill="black" stroke="none" paint-order="stroke fill markers" d=" M 58.244117098826834 2008.6466949568255 L 44.631447682160164 2015.4530296651587 L 58.244117098826834 2022.259364373492 Z"/><g transform="rotate(2.733155204931307,0,0)"/></g></g><g><g><rect fill="white" stroke="none" x="122.01798732609247" y="2039.955834615159" width="187.40587104859375" height="21.23576429"/></g><text fill="black" stroke="none" font-family="sans-serif" font-size="11pt" font-style="normal" font-weight="normal" text-decoration="normal" x="124.46826782109247" y="2054.657517585159" text-anchor="start" dominant-baseline="alphabetic" xml:space="preserve">GET /album-art/ab(...)13.jpg</text></g><g><path fill="none" stroke="black" paint-order="fill stroke markers" d=" M 44.631447682160164 2057.380287056453 L 384.0878641352852 2073.585519928899" stroke-miterlimit="10" stroke-width="1.3612669416666667" stroke-dasharray=""/><g transform="translate(386.8103980186185,2073.7154903564533) rotate(2.733155204931307,0,0) translate(-386.8103980186185,-2073.7154903564533)"><path fill="black" stroke="none" paint-order="stroke fill markers" d=" M 373.19772860195184 2066.90915564812 L 386.8103980186185 2073.7154903564533 L 373.19772860195184 2080.5218250647868 Z"/><g transform="rotate(-2.733155204931307,0,0)"/></g></g><g><g><rect fill="white" stroke="none" x="122.01798732609247" y="2098.2182953064535" width="187.40587104859375" height="21.23576429"/></g><text fill="black" stroke="none" font-family="sans-serif" font-size="11pt" font-style="normal" font-weight="normal" text-decoration="normal" x="124.46826782109247" y="2112.9199782764535" text-anchor="start" dominant-baseline="alphabetic" xml:space="preserve">GET /album-art/ab(...)14.jpg</text></g><g><path fill="none" stroke="black" paint-order="fill stroke markers" d=" M 44.631447682160164 2115.6427477477478 L 384.0878641352852 2131.8479806201935" stroke-miterlimit="10" stroke-width="1.3612669416666667" stroke-dasharray=""/><g transform="translate(386.8103980186185,2131.977951047748) rotate(2.733155204931307,0,0) translate(-386.8103980186185,-2131.977951047748)"><path fill="black" stroke="none" paint-order="stroke fill markers" d=" M 373.19772860195184 2125.1716163394144 L 386.8103980186185 2131.977951047748 L 373.19772860195184 2138.7842857560813 Z"/><g transform="rotate(-2.733155204931307,0,0)"/></g></g><g><g><rect fill="white" stroke="none" x="122.01798732609247" y="2156.480755997748" width="187.40587104859375" height="21.23576429"/></g><text fill="black" stroke="none" font-family="sans-serif" font-size="11pt" font-style="normal" font-weight="normal" text-decoration="normal" x="124.46826782109247" y="2171.182438967748" text-anchor="start" dominant-baseline="alphabetic" xml:space="preserve">GET /album-art/ab(...)15.jpg</text></g><g><path fill="none" stroke="black" paint-order="fill stroke markers" d=" M 44.631447682160164 2173.9052084390423 L 384.0878641352852 2190.110441311488" stroke-miterlimit="10" stroke-width="1.3612669416666667" stroke-dasharray=""/><g transform="translate(386.8103980186185,2190.2404117390424) rotate(2.733155204931307,0,0) translate(-386.8103980186185,-2190.2404117390424)"><path fill="black" stroke="none" paint-order="stroke fill markers" d=" M 373.19772860195184 2183.434077030709 L 386.8103980186185 2190.2404117390424 L 373.19772860195184 2197.046746447376 Z"/><g transform="rotate(-2.733155204931307,0,0)"/></g></g><g><g><rect fill="white" stroke="none" x="122.01798732609247" y="2214.7432166890426" width="187.40587104859375" height="21.23576429"/></g><text fill="black" stroke="none" font-family="sans-serif" font-size="11pt" font-style="normal" font-weight="normal" text-decoration="normal" x="124.46826782109247" y="2229.4448996590427" text-anchor="start" dominant-baseline="alphabetic" xml:space="preserve">GET /album-art/ab(...)16.jpg</text></g><g><path fill="none" stroke="black" paint-order="fill stroke markers" d=" M 44.631447682160164 2232.167669130337 L 384.0878641352852 2248.3729020027827" stroke-miterlimit="10" stroke-width="1.3612669416666667" stroke-dasharray=""/><g transform="translate(386.8103980186185,2248.502872430337) rotate(2.733155204931307,0,0) translate(-386.8103980186185,-2248.502872430337)"><path fill="black" stroke="none" paint-order="stroke fill markers" d=" M 373.19772860195184 2241.6965377220035 L 386.8103980186185 2248.502872430337 L 373.19772860195184 2255.3092071386704 Z"/><g transform="rotate(-2.733155204931307,0,0)"/></g></g><g><g><rect fill="white" stroke="none" x="122.01798732609247" y="2273.005677380337" width="187.40587104859375" height="21.23576429"/></g><text fill="black" stroke="none" font-family="sans-serif" font-size="11pt" font-style="normal" font-weight="normal" text-decoration="normal" x="124.46826782109247" y="2287.7073603503372" text-anchor="start" dominant-baseline="alphabetic" xml:space="preserve">GET /album-art/ab(...)17.jpg</text></g><g><path fill="none" stroke="black" paint-order="fill stroke markers" d=" M 44.631447682160164 2290.4301298216315 L 384.0878641352852 2306.6353626940772" stroke-miterlimit="10" stroke-width="1.3612669416666667" stroke-dasharray=""/><g transform="translate(386.8103980186185,2306.7653331216316) rotate(2.733155204931307,0,0) translate(-386.8103980186185,-2306.7653331216316)"><path fill="black" stroke="none" paint-order="stroke fill markers" d=" M 373.19772860195184 2299.958998413298 L 386.8103980186185 2306.7653331216316 L 373.19772860195184 2313.571667829965 Z"/><g transform="rotate(-2.733155204931307,0,0)"/></g></g><g><g><rect fill="white" stroke="none" x="122.01798732609247" y="2331.2681380716317" width="187.40587104859375" height="21.23576429"/></g><text fill="black" stroke="none" font-family="sans-serif" font-size="11pt" font-style="normal" font-weight="normal" text-decoration="normal" x="124.46826782109247" y="2345.969821041632" text-anchor="start" dominant-baseline="alphabetic" xml:space="preserve">GET /album-art/ab(...)18.jpg</text></g><g><path fill="none" stroke="black" paint-order="fill stroke markers" d=" M 44.631447682160164 2348.692590512926 L 384.0878641352852 2364.897823385372" stroke-miterlimit="10" stroke-width="1.3612669416666667" stroke-dasharray=""/><g transform="translate(386.8103980186185,2365.027793812926) rotate(2.733155204931307,0,0) translate(-386.8103980186185,-2365.027793812926)"><path fill="black" stroke="none" paint-order="stroke fill markers" d=" M 373.19772860195184 2358.2214591045927 L 386.8103980186185 2365.027793812926 L 373.19772860195184 2371.8341285212596 Z"/><g transform="rotate(-2.733155204931307,0,0)"/></g></g><g><g><rect fill="white" stroke="none" x="72.51191432804559" y="2389.530598762926" width="286.4180170446875" height="21.23576429"/></g><text fill="black" stroke="none" font-family="sans-serif" font-size="11pt" font-style="normal" font-weight="normal" text-decoration="normal" x="74.96219482304559" y="2404.232281732926" text-anchor="start" dominant-baseline="alphabetic" xml:space="preserve">HTTP/1.1 200 OK  + album-art/ab(...)13.jpg</text></g><g><path fill="none" stroke="black" paint-order="fill stroke markers" d=" M 386.8103980186185 2409.3184103945287 L 47.3539815654935 2425.5236432669744" stroke-miterlimit="10" stroke-width="1.3612669416666667" stroke-dasharray=""/><g transform="translate(44.631447682160164,2425.6536136945288) rotate(-2.733155204931307,0,0) translate(-44.631447682160164,-2425.6536136945288)"><path fill="black" stroke="none" paint-order="stroke fill markers" d=" M 58.244117098826834 2418.8472789861953 L 44.631447682160164 2425.6536136945288 L 58.244117098826834 2432.459948402862 Z"/><g transform="rotate(2.733155204931307,0,0)"/></g></g><g><g><rect fill="white" stroke="none" x="72.51191432804559" y="2450.1564186445285" width="286.4180170446875" height="21.23576429"/></g><text fill="black" stroke="none" font-family="sans-serif" font-size="11pt" font-style="normal" font-weight="normal" text-decoration="normal" x="74.96219482304559" y="2464.8581016145286" text-anchor="start" dominant-baseline="alphabetic" xml:space="preserve">HTTP/1.1 200 OK  + album-art/ab(...)14.jpg</text></g><g><path fill="none" stroke="black" paint-order="fill stroke markers" d=" M 386.8103980186185 2469.9442302761313 L 47.3539815654935 2486.149463148577" stroke-miterlimit="10" stroke-width="1.3612669416666667" stroke-dasharray=""/><g transform="translate(44.631447682160164,2486.2794335761314) rotate(-2.733155204931307,0,0) translate(-44.631447682160164,-2486.2794335761314)"><path fill="black" stroke="none" paint-order="stroke fill markers" d=" M 58.244117098826834 2479.473098867798 L 44.631447682160164 2486.2794335761314 L 58.244117098826834 2493.085768284465 Z"/><g transform="rotate(2.733155204931307,0,0)"/></g></g><g><g><rect fill="white" stroke="none" x="72.51191432804559" y="2510.782238526131" width="286.4180170446875" height="21.23576429"/></g><text fill="black" stroke="none" font-family="sans-serif" font-size="11pt" font-style="normal" font-weight="normal" text-decoration="normal" x="74.96219482304559" y="2525.483921496131" text-anchor="start" dominant-baseline="alphabetic" xml:space="preserve">HTTP/1.1 200 OK  + album-art/ab(...)15.jpg</text></g><g><path fill="none" stroke="black" paint-order="fill stroke markers" d=" M 386.8103980186185 2530.570050157734 L 47.3539815654935 2546.7752830301797" stroke-miterlimit="10" stroke-width="1.3612669416666667" stroke-dasharray=""/><g transform="translate(44.631447682160164,2546.905253457734) rotate(-2.733155204931307,0,0) translate(-44.631447682160164,-2546.905253457734)"><path fill="black" stroke="none" paint-order="stroke fill markers" d=" M 58.244117098826834 2540.0989187494006 L 44.631447682160164 2546.905253457734 L 58.244117098826834 2553.7115881660675 Z"/><g transform="rotate(2.733155204931307,0,0)"/></g></g><g><g><rect fill="white" stroke="none" x="72.51191432804559" y="2571.4080584077337" width="286.4180170446875" height="21.23576429"/></g><text fill="black" stroke="none" font-family="sans-serif" font-size="11pt" font-style="normal" font-weight="normal" text-decoration="normal" x="74.96219482304559" y="2586.109741377734" text-anchor="start" dominant-baseline="alphabetic" xml:space="preserve">HTTP/1.1 200 OK  + album-art/ab(...)16.jpg</text></g><g><path fill="none" stroke="black" paint-order="fill stroke markers" d=" M 386.8103980186185 2591.1958700393366 L 47.3539815654935 2607.4011029117823" stroke-miterlimit="10" stroke-width="1.3612669416666667" stroke-dasharray=""/><g transform="translate(44.631447682160164,2607.5310733393367) rotate(-2.733155204931307,0,0) translate(-44.631447682160164,-2607.5310733393367)"><path fill="black" stroke="none" paint-order="stroke fill markers" d=" M 58.244117098826834 2600.724738631003 L 44.631447682160164 2607.5310733393367 L 58.244117098826834 2614.33740804767 Z"/><g transform="rotate(2.733155204931307,0,0)"/></g></g><g><g><rect fill="white" stroke="none" x="72.51191432804559" y="2632.0338782893364" width="286.4180170446875" height="21.23576429"/></g><text fill="black" stroke="none" font-family="sans-serif" font-size="11pt" font-style="normal" font-weight="normal" text-decoration="normal" x="74.96219482304559" y="2646.7355612593365" text-anchor="start" dominant-baseline="alphabetic" xml:space="preserve">HTTP/1.1 200 OK  + album-art/ab(...)17.jpg</text></g><g><path fill="none" stroke="black" paint-order="fill stroke markers" d=" M 386.8103980186185 2651.821689920939 L 47.3539815654935 2668.026922793385" stroke-miterlimit="10" stroke-width="1.3612669416666667" stroke-dasharray=""/><g transform="translate(44.631447682160164,2668.1568932209393) rotate(-2.733155204931307,0,0) translate(-44.631447682160164,-2668.1568932209393)"><path fill="black" stroke="none" paint-order="stroke fill markers" d=" M 58.244117098826834 2661.350558512606 L 44.631447682160164 2668.1568932209393 L 58.244117098826834 2674.9632279292728 Z"/><g transform="rotate(2.733155204931307,0,0)"/></g></g><g><g><rect fill="white" stroke="none" x="72.51191432804559" y="2692.659698170939" width="286.4180170446875" height="21.23576429"/></g><text fill="black" stroke="none" font-family="sans-serif" font-size="11pt" font-style="normal" font-weight="normal" text-decoration="normal" x="74.96219482304559" y="2707.361381140939" text-anchor="start" dominant-baseline="alphabetic" xml:space="preserve">HTTP/1.1 200 OK  + album-art/ab(...)18.jpg</text></g><g><path fill="none" stroke="black" paint-order="fill stroke markers" d=" M 386.8103980186185 2712.447509802542 L 47.3539815654935 2728.6527426749876" stroke-miterlimit="10" stroke-width="1.3612669416666667" stroke-dasharray=""/><g transform="translate(44.631447682160164,2728.782713102542) rotate(-2.733155204931307,0,0) translate(-44.631447682160164,-2728.782713102542)"><path fill="black" stroke="none" paint-order="stroke fill markers" d=" M 58.244117098826834 2721.9763783942085 L 44.631447682160164 2728.782713102542 L 58.244117098826834 2735.5890478108754 Z"/><g transform="rotate(2.733155204931307,0,0)"/></g></g><g><g><rect fill="white" stroke="none" x="122.01798732609247" y="2753.285518052542" width="187.40587104859375" height="21.23576429"/></g><text fill="black" stroke="none" font-family="sans-serif" font-size="11pt" font-style="normal" font-weight="normal" text-decoration="normal" x="124.46826782109247" y="2767.987201022542" text-anchor="start" dominant-baseline="alphabetic" xml:space="preserve">GET /album-art/ab(...)19.jpg</text></g><g><path fill="none" stroke="black" paint-order="fill stroke markers" d=" M 44.631447682160164 2770.7099704938364 L 384.0878641352852 2786.915203366282" stroke-miterlimit="10" stroke-width="1.3612669416666667" stroke-dasharray=""/><g transform="translate(386.8103980186185,2787.0451737938365) rotate(2.733155204931307,0,0) translate(-386.8103980186185,-2787.0451737938365)"><path fill="black" stroke="none" paint-order="stroke fill markers" d=" M 373.19772860195184 2780.238839085503 L 386.8103980186185 2787.0451737938365 L 373.19772860195184 2793.85150850217 Z"/><g transform="rotate(-2.733155204931307,0,0)"/></g></g><g><g><rect fill="white" stroke="none" x="122.01798732609247" y="2811.5479787438367" width="187.40587104859375" height="21.23576429"/></g><text fill="black" stroke="none" font-family="sans-serif" font-size="11pt" font-style="normal" font-weight="normal" text-decoration="normal" x="124.46826782109247" y="2826.2496617138368" text-anchor="start" dominant-baseline="alphabetic" xml:space="preserve">GET /album-art/ab(...)20.jpg</text></g><g><path fill="none" stroke="black" paint-order="fill stroke markers" d=" M 44.631447682160164 2828.972431185131 L 384.0878641352852 2845.1776640575767" stroke-miterlimit="10" stroke-width="1.3612669416666667" stroke-dasharray=""/><g transform="translate(386.8103980186185,2845.307634485131) rotate(2.733155204931307,0,0) translate(-386.8103980186185,-2845.307634485131)"><path fill="black" stroke="none" paint-order="stroke fill markers" d=" M 373.19772860195184 2838.5012997767976 L 386.8103980186185 2845.307634485131 L 373.19772860195184 2852.1139691934645 Z"/><g transform="rotate(-2.733155204931307,0,0)"/></g></g><g><g><rect fill="white" stroke="none" x="72.51191432804559" y="2869.810439435131" width="286.4180170446875" height="21.23576429"/></g><text fill="black" stroke="none" font-family="sans-serif" font-size="11pt" font-style="normal" font-weight="normal" text-decoration="normal" x="74.96219482304559" y="2884.512122405131" text-anchor="start" dominant-baseline="alphabetic" xml:space="preserve">HTTP/1.1 200 OK  + album-art/ab(...)19.jpg</text></g><g><path fill="none" stroke="black" paint-order="fill stroke markers" d=" M 386.8103980186185 2889.5982510667336 L 47.3539815654935 2905.8034839391794" stroke-miterlimit="10" stroke-width="1.3612669416666667" stroke-dasharray=""/><g transform="translate(44.631447682160164,2905.9334543667337) rotate(-2.733155204931307,0,0) translate(-44.631447682160164,-2905.9334543667337)"><path fill="black" stroke="none" paint-order="stroke fill markers" d=" M 58.244117098826834 2899.1271196584003 L 44.631447682160164 2905.9334543667337 L 58.244117098826834 2912.739789075067 Z"/><g transform="rotate(2.733155204931307,0,0)"/></g></g><g><g><rect fill="white" stroke="none" x="72.51191432804559" y="2930.4362593167334" width="286.4180170446875" height="21.23576429"/></g><text fill="black" stroke="none" font-family="sans-serif" font-size="11pt" font-style="normal" font-weight="normal" text-decoration="normal" x="74.96219482304559" y="2945.1379422867335" text-anchor="start" dominant-baseline="alphabetic" xml:space="preserve">HTTP/1.1 200 OK  + album-art/ab(...)20.jpg</text></g><g><path fill="none" stroke="black" paint-order="fill stroke markers" d=" M 386.8103980186185 2950.2240709483362 L 47.3539815654935 2966.429303820782" stroke-miterlimit="10" stroke-width="1.3612669416666667" stroke-dasharray=""/><g transform="translate(44.631447682160164,2966.5592742483364) rotate(-2.733155204931307,0,0) translate(-44.631447682160164,-2966.5592742483364)"><path fill="black" stroke="none" paint-order="stroke fill markers" d=" M 58.244117098826834 2959.752939540003 L 44.631447682160164 2966.5592742483364 L 58.244117098826834 2973.36560895667 Z"/><g transform="rotate(2.733155204931307,0,0)"/></g></g></g><g/><g/><g/></g></svg>