<svg version="1.1" xmlns="http://www.w3.org/2000/svg" xmlns:xlink="http://www.w3.org/1999/xlink" width="934" height="3257"><defs/><g><g/><g/><g/><g/><g/><g/><g/><g/><g/><g/><g/><g/><g/><g/><g/><g/><g/><g/><g/><g/><g/><g/><g/><g/><g/><g/><g/><g/><g/><g/><g/><g/><g/><g/><g/><g/><g/><g/><g/><g/><g/><g/><g/><g/><g/><g/><g/><g/><g/><g/><g/><g/><g/><g/><g/><g/><g/><g/><g/><g/><g><rect fill="white" stroke="none" x="0" y="0" width="934" height="3257"/></g><g><text fill="black" stroke="none" font-family="sans-serif" font-size="16.5pt" font-style="normal" font-weight="normal" text-decoration="normal" x="204.38026419903838" y="24.50280495" text-anchor="start" dominant-baseline="alphabetic" xml:space="preserve">Capture 3 - Expired credential and Album Art in cache</text></g><g/><g><path fill="none" stroke="black" paint-order="fill stroke markers" d=" M 44.631447682160164 95.887643371 L 44.631447682160164 3257.945801186037" stroke-miterlimit="10" stroke-width="1.3612669416666667" stroke-dasharray="12.565541,5.445067766666667"/><path fill="none" stroke="black" paint-order="fill stroke markers" d=" M 386.8103980186185 95.887643371 L 386.8103980186185 3257.945801186037" stroke-miterlimit="10" stroke-width="1.3612669416666667" stroke-dasharray="12.565541,5.445067766666667"/><path fill="none" stroke="black" paint-order="fill stroke markers" d=" M 872.4394826324205 95.887643371 L 872.4394826324205 3257.945801186037" stroke-miterlimit="10" stroke-width="1.3612669416666667" stroke-dasharray="12.565541,5.445067766666667"/></g><g><path fill="none" stroke="none"/><g><path fill="white" stroke="black" paint-order="fill stroke markers" d=" M 8.167601650000002 51.782594461 L 81.09529371432032 51.782594461 L 81.09529371432032 95.887643371 L 8.167601650000002 95.887643371 L 8.167601650000002 51.782594461 Z" stroke-miterlimit="10" stroke-width="2.613632528" stroke-dasharray=""/></g><g><g/><text fill="black" stroke="none" font-family="sans-serif" font-size="11pt" font-style="normal" font-weight="normal" text-decoration="normal" x="25.891297230500008" y="79.55244007099999" text-anchor="start" dominant-baseline="alphabetic" xml:space="preserve">Client</text></g><path fill="none" stroke="none"/><g><path fill="white" stroke="black" paint-order="fill stroke markers" d=" M 347.497598739388 51.782594461 L 426.12319729784895 51.782594461 L 426.12319729784895 95.887643371 L 347.497598739388 95.887643371 L 347.497598739388 51.782594461 Z" stroke-miterlimit="10" stroke-width="2.613632528" stroke-dasharray=""/></g><g><g/><text fill="black" stroke="none" font-family="sans-serif" font-size="11pt" font-style="normal" font-weight="normal" text-decoration="normal" x="365.22129431988805" y="79.55244007099999" text-anchor="start" dominant-baseline="alphabetic" xml:space="preserve">Server</text></g><path fill="none" stroke="none"/><g><path fill="white" stroke="black" paint-order="fill stroke markers" d=" M 818.4559603917643 51.782594461 L 926.4230048730768 51.782594461 L 926.4230048730768 95.887643371 L 818.4559603917643 95.887643371 L 818.4559603917643 51.782594461 Z" stroke-miterlimit="10" stroke-width="2.613632528" stroke-dasharray=""/></g><g><g/><text fill="black" stroke="none" font-family="sans-serif" font-size="11pt" font-style="normal" font-weight="normal" text-decoration="normal" x="836.1796559722643" y="79.55244007099999" text-anchor="start" dominant-baseline="alphabetic" xml:space="preserve">Spotify API</text></g></g><g><g><g><rect fill="white" stroke="none" x="160.72947414249873" y="128.558049971" width="109.98289741578125" height="21.23576429"/></g><text fill="black" stroke="none" font-family="sans-serif" font-size="11pt" font-style="normal" font-weight="normal" text-decoration="normal" x="163.17975463749872" y="143.259732941" text-anchor="start" dominant-baseline="alphabetic" xml:space="preserve">GET /HTTP /1.1</text></g><g><path fill="none" stroke="black" paint-order="fill stroke markers" d=" M 44.631447682160164 144.13446352337536 L 384.0878641352852 160.33969639582082" stroke-miterlimit="10" stroke-width="1.3612669416666667" stroke-dasharray=""/><g transform="translate(386.8103980186185,160.46966682337535) rotate(2.733155204931307,0,0) translate(-386.8103980186185,-160.46966682337535)"><path fill="black" stroke="none" paint-order="stroke fill markers" d=" M 373.19772860195184 153.663332115042 L 386.8103980186185 160.46966682337535 L 373.19772860195184 167.2760015317087 Z"/><g transform="rotate(-2.733155204931307,0,0)"/></g></g><g><g><rect fill="white" stroke="none" x="112.85189540714715" y="184.97247177337533" width="205.73805488648438" height="21.23576429"/></g><text fill="black" stroke="none" font-family="sans-serif" font-size="11pt" font-style="normal" font-weight="normal" text-decoration="normal" x="115.30217590214716" y="199.6741547433753" text-anchor="start" dominant-baseline="alphabetic" xml:space="preserve">HTTP/1.1 200 OK  + main.thml</text></g><g><path fill="none" stroke="black" paint-order="fill stroke markers" d=" M 386.8103980186185 202.83450219781344 L 47.3539815654935 219.0397350702589" stroke-miterlimit="10" stroke-width="1.3612669416666667" stroke-dasharray=""/><g transform="translate(44.631447682160164,219.16970549781342) rotate(-2.733155204931307,0,0) translate(-44.631447682160164,-219.16970549781342)"><path fill="black" stroke="none" paint-order="stroke fill markers" d=" M 58.244117098826834 212.3633707894801 L 44.631447682160164 219.16970549781342 L 58.244117098826834 225.97604020614676 Z"/><g transform="rotate(2.733155204931307,0,0)"/></g></g><g><g><rect fill="white" stroke="none" x="134.22628505558467" y="243.67251044781344" width="162.98927558960938" height="21.23576429"/></g><text fill="black" stroke="none" font-family="sans-serif" font-size="11pt" font-style="normal" font-weight="normal" text-decoration="normal" x="136.67656555058466" y="258.37419341781344" text-anchor="start" dominant-baseline="alphabetic" xml:space="preserve">GET /images/banner.jpg</text></g><g><path fill="none" stroke="black" paint-order="fill stroke markers" d=" M 44.631447682160164 260.5141537327816 L 384.0878641352852 276.71938660522704" stroke-miterlimit="10" stroke-width="1.3612669416666667" stroke-dasharray=""/><g transform="translate(386.8103980186185,276.8493570327816) rotate(2.733155204931307,0,0) translate(-386.8103980186185,-276.8493570327816)"><path fill="black" stroke="none" paint-order="stroke fill markers" d=" M 373.19772860195184 270.04302232444826 L 386.8103980186185 276.8493570327816 L 373.19772860195184 283.65569174111494 Z"/><g transform="rotate(-2.733155204931307,0,0)"/></g></g><g><g><rect fill="white" stroke="none" x="110.38590724796747" y="301.35216198278164" width="210.67003120484375" height="21.23576429"/></g><text fill="black" stroke="none" font-family="sans-serif" font-size="11pt" font-style="normal" font-weight="normal" text-decoration="normal" x="112.83618774296747" y="316.0538449527816" text-anchor="start" dominant-baseline="alphabetic" xml:space="preserve">HTTP/1.1 200 OK  + banner.jpg</text></g><g><path fill="none" stroke="black" paint-order="fill stroke markers" d=" M 386.8103980186185 319.3319156566364 L 47.3539815654935 335.53714852908183" stroke-miterlimit="10" stroke-width="1.3612669416666667" stroke-dasharray=""/><g transform="translate(44.631447682160164,335.6671189566364) rotate(-2.733155204931307,0,0) translate(-44.631447682160164,-335.6671189566364)"><path fill="black" stroke="none" paint-order="stroke fill markers" d=" M 58.244117098826834 328.86078424830305 L 44.631447682160164 335.6671189566364 L 58.244117098826834 342.4734536649697 Z"/><g transform="rotate(2.733155204931307,0,0)"/></g></g><g><g><rect fill="white" stroke="none" x="88.417409017987" y="360.16992390663637" width="254.6070276648047" height="21.23576429"/></g><text fill="black" stroke="none" font-family="sans-serif" font-size="11pt" font-style="normal" font-weight="normal" text-decoration="normal" x="90.867689512987" y="374.87160687663635" text-anchor="start" dominant-baseline="alphabetic" xml:space="preserve">GET /search?artist=eminem HTTP/1.1</text></g><g><path fill="none" stroke="black" paint-order="fill stroke markers" d=" M 44.631447682160164 379.19842673478473 L 384.0878641352852 395.40365960723017" stroke-miterlimit="10" stroke-width="1.3612669416666667" stroke-dasharray=""/><g transform="translate(386.8103980186185,395.5336300347847) rotate(2.733155204931307,0,0) translate(-386.8103980186185,-395.5336300347847)"><path fill="black" stroke="none" paint-order="stroke fill markers" d=" M 373.19772860195184 388.7272953264514 L 386.8103980186185 395.5336300347847 L 373.19772860195184 402.33996474311806 Z"/><g transform="rotate(-2.733155204931307,0,0)"/></g></g><g><g><rect fill="white" stroke="none" x="464.21482096333204" y="420.03643498478476" width="169.51040901246094" height="21.23576429"/></g><g><rect fill="white" stroke="none" x="464.21482096333204" y="436.37163828478475" width="171.65782417359375" height="21.23576429"/></g><g><rect fill="white" stroke="none" x="464.21482096333204" y="452.70684158478474" width="330.820238724375" height="21.23576429"/></g><g><rect fill="white" stroke="none" x="464.21482096333204" y="469.04204488478473" width="299.8253046423437" height="21.23576429"/></g><g><rect fill="white" stroke="none" x="464.21482096333204" y="485.3772481847847" width="130.41949714722656" height="21.23576429"/></g><g><rect fill="white" stroke="none" x="464.21482096333204" y="501.7124514847847" width="196.0099817663672" height="21.23576429"/></g><text fill="black" stroke="none" font-family="sans-serif" font-size="11pt" font-style="normal" font-weight="normal" text-decoration="normal" x="466.66510145833206" y="434.73811795478474" text-anchor="start" dominant-baseline="alphabetic" xml:space="preserve">POST /api/token http/1.1 </text><text fill="black" stroke="none" font-family="sans-serif" font-size="11pt" font-style="normal" font-weight="normal" text-decoration="normal" x="466.66510145833206" y="451.07332125478473" text-anchor="start" dominant-baseline="alphabetic" xml:space="preserve">Host: acounts.spotify.com</text><text fill="black" stroke="none" font-family="sans-serif" font-size="11pt" font-style="normal" font-weight="normal" text-decoration="normal" x="466.66510145833206" y="467.4085245547847" text-anchor="start" dominant-baseline="alphabetic" xml:space="preserve">Content-Type: application/x-www-form-urlencoded</text><text fill="black" stroke="none" font-family="sans-serif" font-size="11pt" font-style="normal" font-weight="normal" text-decoration="normal" x="466.66510145833206" y="483.7437278547847" text-anchor="start" dominant-baseline="alphabetic" xml:space="preserve">Authorization: Basic BQCYCAoWzbYyZm9j...</text><text fill="black" stroke="none" font-family="sans-serif" font-size="11pt" font-style="normal" font-weight="normal" text-decoration="normal" x="466.66510145833206" y="500.0789311547847" text-anchor="start" dominant-baseline="alphabetic" xml:space="preserve">Content-Length: 29</text><text fill="black" stroke="none" font-family="sans-serif" font-size="11pt" font-style="normal" font-weight="normal" text-decoration="normal" x="466.66510145833206" y="516.4141344547847" text-anchor="start" dominant-baseline="alphabetic" xml:space="preserve">grant_type=client_credentials</text></g><g><path fill="none" stroke="black" paint-order="fill stroke markers" d=" M 386.8103980186185 520.2621270365324 L 869.7169487490872 536.5057519161197" stroke-miterlimit="10" stroke-width="1.3612669416666667" stroke-dasharray=""/><g transform="translate(872.4394826324205,536.5973303365324) rotate(1.9265432879553983,0,0) translate(-872.4394826324205,-536.5973303365324)"><path fill="black" stroke="none" paint-order="stroke fill markers" d=" M 858.8268132157539 529.7909956281991 L 872.4394826324205 536.5973303365324 L 858.8268132157539 543.4036650448658 Z"/><g transform="rotate(-1.9265432879553983,0,0)"/></g></g><g><g><rect fill="white" stroke="none" x="444.03940592426954" y="561.1001352865323" width="371.1710688025" height="21.23576429"/></g><g><rect fill="white" stroke="none" x="444.03940592426954" y="577.4353385865323" width="259.10951484742185" height="21.23576429"/></g><g><rect fill="white" stroke="none" x="444.03940592426954" y="593.7705418865323" width="242.81746162476563" height="21.23576429"/></g><text fill="black" stroke="none" font-family="sans-serif" font-size="11pt" font-style="normal" font-weight="normal" text-decoration="normal" x="446.48968641926956" y="575.8018182565323" text-anchor="start" dominant-baseline="alphabetic" xml:space="preserve">HTTP/1.1 200 OK + access_token:VglM_jhfRn7IoTpA... </text><text fill="black" stroke="none" font-family="sans-serif" font-size="11pt" font-style="normal" font-weight="normal" text-decoration="normal" x="446.48968641926956" y="592.1370215565323" text-anchor="start" dominant-baseline="alphabetic" xml:space="preserve">                                 token_type:Bearer</text><text fill="black" stroke="none" font-family="sans-serif" font-size="11pt" font-style="normal" font-weight="normal" text-decoration="normal" x="446.48968641926956" y="608.4722248565323" text-anchor="start" dominant-baseline="alphabetic" xml:space="preserve">                                 expires_in:3600</text></g><g><path fill="none" stroke="black" paint-order="fill stroke markers" d=" M 872.4394826324205 612.9988619362451 L 389.5329319019518 629.2424868158324" stroke-miterlimit="10" stroke-width="1.3612669416666667" stroke-dasharray=""/><g transform="translate(386.8103980186185,629.3340652362451) rotate(-1.9265432879553983,0,0) translate(-386.8103980186185,-629.3340652362451)"><path fill="black" stroke="none" paint-order="stroke fill markers" d=" M 400.4230674352852 622.5277305279118 L 386.8103980186185 629.3340652362451 L 400.4230674352852 636.1403999445785 Z"/><g transform="rotate(1.9265432879553983,0,0)"/></g></g><g><g><rect fill="white" stroke="none" x="406.14038859028517" y="653.8368701862452" width="270.2261988073828" height="21.23576429"/></g><g><rect fill="white" stroke="none" x="406.14038859028517" y="670.1720734862452" width="446.9691034704687" height="21.23576429"/></g><text fill="black" stroke="none" font-family="sans-serif" font-size="11pt" font-style="normal" font-weight="normal" text-decoration="normal" x="408.5906690852852" y="668.5385531562451" text-anchor="start" dominant-baseline="alphabetic" xml:space="preserve">GET https:</text><text fill="black" stroke="none" font-family="sans-serif" font-size="11pt" font-style="normal" font-weight="normal" text-decoration="normal" x="478.65509169270706" y="668.5385531562451" text-anchor="start" dominant-baseline="alphabetic" xml:space="preserve">//</text><text fill="black" stroke="none" font-family="sans-serif" font-size="11pt" font-style="normal" font-weight="normal" text-decoration="normal" x="486.8011183040352" y="668.5385531562451" text-anchor="start" dominant-baseline="alphabetic" xml:space="preserve">api.spotify.com/v1  HTTP/1.1</text><text fill="black" stroke="none" font-family="sans-serif" font-size="11pt" font-style="normal" font-weight="normal" text-decoration="normal" x="408.5906690852852" y="684.8737564562451" text-anchor="start" dominant-baseline="alphabetic" xml:space="preserve">/q?artist=eminem&amp;type=album&amp;access_token=VglM_jhfRn7IoTpA...</text></g><g><path fill="none" stroke="black" paint-order="fill stroke markers" d=" M 386.8103980186185 690.6752104129437 L 869.7169487490872 706.918835292531" stroke-miterlimit="10" stroke-width="1.3612669416666667" stroke-dasharray=""/><g transform="translate(872.4394826324205,707.0104137129437) rotate(1.9265432879553983,0,0) translate(-872.4394826324205,-707.0104137129437)"><path fill="black" stroke="none" paint-order="stroke fill markers" d=" M 858.8268132157539 700.2040790046103 L 872.4394826324205 707.0104137129437 L 858.8268132157539 713.816748421277 Z"/><g transform="rotate(-1.9265432879553983,0,0)"/></g></g><g><g><rect fill="white" stroke="none" x="490.08448038716017" y="731.5132186629437" width="279.0809198767187" height="21.23576429"/></g><text fill="black" stroke="none" font-family="sans-serif" font-size="11pt" font-style="normal" font-weight="normal" text-decoration="normal" x="492.5347608821602" y="746.2149016329437" text-anchor="start" dominant-baseline="alphabetic" xml:space="preserve"> HTTP/1.1 200 OK + Spotify Album Object</text></g><g><path fill="none" stroke="black" paint-order="fill stroke markers" d=" M 872.4394826324205 749.1927112718265 L 389.5329319019518 765.4363361514138" stroke-miterlimit="10" stroke-width="1.3612669416666667" stroke-dasharray=""/><g transform="translate(386.8103980186185,765.5279145718265) rotate(-1.9265432879553983,0,0) translate(-386.8103980186185,-765.5279145718265)"><path fill="black" stroke="none" paint-order="stroke fill markers" d=" M 400.4230674352852 758.7215798634932 L 386.8103980186185 765.5279145718265 L 400.4230674352852 772.3342492801598 Z"/><g transform="rotate(1.9265432879553983,0,0)"/></g></g><g><g><rect fill="white" stroke="none" x="63.96143825382684" y="790.0307195218264" width="303.518969193125" height="21.23576429"/></g><text fill="black" stroke="none" font-family="sans-serif" font-size="11pt" font-style="normal" font-weight="normal" text-decoration="normal" x="66.41171874882684" y="804.7324024918264" text-anchor="start" dominant-baseline="alphabetic" xml:space="preserve">HTTP/1.1 200 OK  + text/html with image tags</text></g><g><path fill="none" stroke="black" paint-order="fill stroke markers" d=" M 386.8103980186185 810.2267203913902 L 47.3539815654935 826.4319532638357" stroke-miterlimit="10" stroke-width="1.3612669416666667" stroke-dasharray=""/><g transform="translate(44.631447682160164,826.5619236913902) rotate(-2.733155204931307,0,0) translate(-44.631447682160164,-826.5619236913902)"><path fill="black" stroke="none" paint-order="stroke fill markers" d=" M 58.244117098826834 819.7555889830569 L 44.631447682160164 826.5619236913902 L 58.244117098826834 833.3682583997236 Z"/><g transform="rotate(2.733155204931307,0,0)"/></g></g><g><g><rect fill="white" stroke="none" x="126.09457881779169" y="851.0647286413903" width="179.25268806519531" height="21.23576429"/></g><text fill="black" stroke="none" font-family="sans-serif" font-size="11pt" font-style="normal" font-weight="normal" text-decoration="normal" x="128.5448593127917" y="865.7664116113903" text-anchor="start" dominant-baseline="alphabetic" xml:space="preserve">GET /album-art/ab(...)1.jpg</text></g><g><path fill="none" stroke="black" paint-order="fill stroke markers" d=" M 44.631447682160164 868.2945696060801 L 384.0878641352852 884.4998024785256" stroke-miterlimit="10" stroke-width="1.3612669416666667" stroke-dasharray=""/><g transform="translate(386.8103980186185,884.6297729060801) rotate(2.733155204931307,0,0) translate(-386.8103980186185,-884.6297729060801)"><path fill="black" stroke="none" paint-order="stroke fill markers" d=" M 373.19772860195184 877.8234381977468 L 386.8103980186185 884.6297729060801 L 373.19772860195184 891.4361076144135 Z"/><g transform="rotate(-2.733155204931307,0,0)"/></g></g><g><g><rect fill="white" stroke="none" x="126.09457881779169" y="909.1325778560802" width="179.25268806519531" height="21.23576429"/></g><text fill="black" stroke="none" font-family="sans-serif" font-size="11pt" font-style="normal" font-weight="normal" text-decoration="normal" x="128.5448593127917" y="923.8342608260801" text-anchor="start" dominant-baseline="alphabetic" xml:space="preserve">GET /album-art/ab(...)2.jpg</text></g><g><path fill="none" stroke="black" paint-order="fill stroke markers" d=" M 44.631447682160164 926.36241882077 L 384.0878641352852 942.5676516932155" stroke-miterlimit="10" stroke-width="1.3612669416666667" stroke-dasharray=""/><g transform="translate(386.8103980186185,942.69762212077) rotate(2.733155204931307,0,0) translate(-386.8103980186185,-942.69762212077)"><path fill="black" stroke="none" paint-order="stroke fill markers" d=" M 373.19772860195184 935.8912874124367 L 386.8103980186185 942.69762212077 L 373.19772860195184 949.5039568291033 Z"/><g transform="rotate(-2.733155204931307,0,0)"/></g></g><g><g><rect fill="white" stroke="none" x="76.58849819035028" y="967.2004270707699" width="278.2648493200781" height="21.23576429"/></g><text fill="black" stroke="none" font-family="sans-serif" font-size="11pt" font-style="normal" font-weight="normal" text-decoration="normal" x="79.03877868535028" y="981.9021100407699" text-anchor="start" dominant-baseline="alphabetic" xml:space="preserve">HTTP/1.1 200 OK  + album-art/ab(...)1.jpg</text></g><g><path fill="none" stroke="black" paint-order="fill stroke markers" d=" M 386.8103980186185 986.7936275899862 L 47.3539815654935 1002.9988604624316" stroke-miterlimit="10" stroke-width="1.3612669416666667" stroke-dasharray=""/><g transform="translate(44.631447682160164,1003.1288308899861) rotate(-2.733155204931307,0,0) translate(-44.631447682160164,-1003.1288308899861)"><path fill="black" stroke="none" paint-order="stroke fill markers" d=" M 58.244117098826834 996.3224961816528 L 44.631447682160164 1003.1288308899861 L 58.244117098826834 1009.9351655983195 Z"/><g transform="rotate(2.733155204931307,0,0)"/></g></g><g><g><rect fill="white" stroke="none" x="76.58849819035028" y="1027.6316358399863" width="278.2648493200781" height="21.23576429"/></g><text fill="black" stroke="none" font-family="sans-serif" font-size="11pt" font-style="normal" font-weight="normal" text-decoration="normal" x="79.03877868535028" y="1042.3333188099864" text-anchor="start" dominant-baseline="alphabetic" xml:space="preserve">HTTP/1.1 200 OK  + album-art/ab(...)2.jpg</text></g><g><path fill="none" stroke="black" paint-order="fill stroke markers" d=" M 386.8103980186185 1047.2248363592023 L 47.3539815654935 1063.4300692316478" stroke-miterlimit="10" stroke-width="1.3612669416666667" stroke-dasharray=""/><g transform="translate(44.631447682160164,1063.5600396592024) rotate(-2.733155204931307,0,0) translate(-44.631447682160164,-1063.5600396592024)"><path fill="black" stroke="none" paint-order="stroke fill markers" d=" M 58.244117098826834 1056.7537049508692 L 44.631447682160164 1063.5600396592024 L 58.244117098826834 1070.3663743675356 Z"/><g transform="rotate(2.733155204931307,0,0)"/></g></g><g><g><rect fill="white" stroke="none" x="126.09457881779169" y="1088.0628446092023" width="179.25268806519531" height="21.23576429"/></g><text fill="black" stroke="none" font-family="sans-serif" font-size="11pt" font-style="normal" font-weight="normal" text-decoration="normal" x="128.5448593127917" y="1102.7645275792024" text-anchor="start" dominant-baseline="alphabetic" xml:space="preserve">GET /album-art/ab(...)3.jpg</text></g><g><path fill="none" stroke="black" paint-order="fill stroke markers" d=" M 44.631447682160164 1105.2926855738922 L 384.0878641352852 1121.4979184463377" stroke-miterlimit="10" stroke-width="1.3612669416666667" stroke-dasharray=""/><g transform="translate(386.8103980186185,1121.6278888738923) rotate(2.733155204931307,0,0) translate(-386.8103980186185,-1121.6278888738923)"><path fill="black" stroke="none" paint-order="stroke fill markers" d=" M 373.19772860195184 1114.821554165559 L 386.8103980186185 1121.6278888738923 L 373.19772860195184 1128.4342235822255 Z"/><g transform="rotate(-2.733155204931307,0,0)"/></g></g><g><g><rect fill="white" stroke="none" x="76.58849819035028" y="1146.1306938238924" width="278.2648493200781" height="21.23576429"/></g><text fill="black" stroke="none" font-family="sans-serif" font-size="11pt" font-style="normal" font-weight="normal" text-decoration="normal" x="79.03877868535028" y="1160.8323767938925" text-anchor="start" dominant-baseline="alphabetic" xml:space="preserve">HTTP/1.1 200 OK  + album-art/ab(...)3.jpg</text></g><g><path fill="none" stroke="black" paint-order="fill stroke markers" d=" M 386.8103980186185 1165.7238943431084 L 47.3539815654935 1181.929127215554" stroke-miterlimit="10" stroke-width="1.3612669416666667" stroke-dasharray=""/><g transform="translate(44.631447682160164,1182.0590976431085) rotate(-2.733155204931307,0,0) translate(-44.631447682160164,-1182.0590976431085)"><path fill="black" stroke="none" paint-order="stroke fill markers" d=" M 58.244117098826834 1175.2527629347753 L 44.631447682160164 1182.0590976431085 L 58.244117098826834 1188.8654323514418 Z"/><g transform="rotate(2.733155204931307,0,0)"/></g></g><g><g><rect fill="white" stroke="none" x="126.09457881779169" y="1206.5619025931085" width="179.25268806519531" height="21.23576429"/></g><text fill="black" stroke="none" font-family="sans-serif" font-size="11pt" font-style="normal" font-weight="normal" text-decoration="normal" x="128.5448593127917" y="1221.2635855631086" text-anchor="start" dominant-baseline="alphabetic" xml:space="preserve">GET /album-art/ab(...)4.jpg</text></g><g><path fill="none" stroke="black" paint-order="fill stroke markers" d=" M 44.631447682160164 1223.7917435577983 L 384.0878641352852 1239.9969764302439" stroke-miterlimit="10" stroke-width="1.3612669416666667" stroke-dasharray=""/><g transform="translate(386.8103980186185,1240.1269468577984) rotate(2.733155204931307,0,0) translate(-386.8103980186185,-1240.1269468577984)"><path fill="black" stroke="none" paint-order="stroke fill markers" d=" M 373.19772860195184 1233.3206121494652 L 386.8103980186185 1240.1269468577984 L 373.19772860195184 1246.9332815661317 Z"/><g transform="rotate(-2.733155204931307,0,0)"/></g></g><g><g><rect fill="white" stroke="none" x="126.09457881779169" y="1264.6297518077984" width="179.25268806519531" height="21.23576429"/></g><text fill="black" stroke="none" font-family="sans-serif" font-size="11pt" font-style="normal" font-weight="normal" text-decoration="normal" x="128.5448593127917" y="1279.3314347777984" text-anchor="start" dominant-baseline="alphabetic" xml:space="preserve">GET /album-art/ab(...)5.jpg</text></g><g><path fill="none" stroke="black" paint-order="fill stroke markers" d=" M 44.631447682160164 1281.8595927724882 L 384.0878641352852 1298.0648256449338" stroke-miterlimit="10" stroke-width="1.3612669416666667" stroke-dasharray=""/><g transform="translate(386.8103980186185,1298.1947960724883) rotate(2.733155204931307,0,0) translate(-386.8103980186185,-1298.1947960724883)"><path fill="black" stroke="none" paint-order="stroke fill markers" d=" M 373.19772860195184 1291.388461364155 L 386.8103980186185 1298.1947960724883 L 373.19772860195184 1305.0011307808215 Z"/><g transform="rotate(-2.733155204931307,0,0)"/></g></g><g><g><rect fill="white" stroke="none" x="126.09457881779169" y="1322.6976010224882" width="179.25268806519531" height="21.23576429"/></g><text fill="black" stroke="none" font-family="sans-serif" font-size="11pt" font-style="normal" font-weight="normal" text-decoration="normal" x="128.5448593127917" y="1337.3992839924883" text-anchor="start" dominant-baseline="alphabetic" xml:space="preserve">GET /album-art/ab(...)6.jpg</text></g><g><path fill="none" stroke="black" paint-order="fill stroke markers" d=" M 44.631447682160164 1339.927441987178 L 384.0878641352852 1356.1326748596236" stroke-miterlimit="10" stroke-width="1.3612669416666667" stroke-dasharray=""/><g transform="translate(386.8103980186185,1356.2626452871782) rotate(2.733155204931307,0,0) translate(-386.8103980186185,-1356.2626452871782)"><path fill="black" stroke="none" paint-order="stroke fill markers" d=" M 373.19772860195184 1349.456310578845 L 386.8103980186185 1356.2626452871782 L 373.19772860195184 1363.0689799955114 Z"/><g transform="rotate(-2.733155204931307,0,0)"/></g></g><g><g><rect fill="white" stroke="none" x="126.09457881779169" y="1380.7654502371781" width="179.25268806519531" height="21.23576429"/></g><text fill="black" stroke="none" font-family="sans-serif" font-size="11pt" font-style="normal" font-weight="normal" text-decoration="normal" x="128.5448593127917" y="1395.4671332071782" text-anchor="start" dominant-baseline="alphabetic" xml:space="preserve">GET /album-art/ab(...)7.jpg</text></g><g><path fill="none" stroke="black" paint-order="fill stroke markers" d=" M 44.631447682160164 1397.995291201868 L 384.0878641352852 1414.2005240743135" stroke-miterlimit="10" stroke-width="1.3612669416666667" stroke-dasharray=""/><g transform="translate(386.8103980186185,1414.330494501868) rotate(2.733155204931307,0,0) translate(-386.8103980186185,-1414.330494501868)"><path fill="black" stroke="none" paint-order="stroke fill markers" d=" M 373.19772860195184 1407.5241597935349 L 386.8103980186185 1414.330494501868 L 373.19772860195184 1421.1368292102013 Z"/><g transform="rotate(-2.733155204931307,0,0)"/></g></g><g><g><rect fill="white" stroke="none" x="126.09457881779169" y="1438.833299451868" width="179.25268806519531" height="21.23576429"/></g><text fill="black" stroke="none" font-family="sans-serif" font-size="11pt" font-style="normal" font-weight="normal" text-decoration="normal" x="128.5448593127917" y="1453.534982421868" text-anchor="start" dominant-baseline="alphabetic" xml:space="preserve">GET /album-art/ab(...)8.jpg</text></g><g><path fill="none" stroke="black" paint-order="fill stroke markers" d=" M 44.631447682160164 1456.0631404165579 L 384.0878641352852 1472.2683732890034" stroke-miterlimit="10" stroke-width="1.3612669416666667" stroke-dasharray=""/><g transform="translate(386.8103980186185,1472.398343716558) rotate(2.733155204931307,0,0) translate(-386.8103980186185,-1472.398343716558)"><path fill="black" stroke="none" paint-order="stroke fill markers" d=" M 373.19772860195184 1465.5920090082247 L 386.8103980186185 1472.398343716558 L 373.19772860195184 1479.2046784248912 Z"/><g transform="rotate(-2.733155204931307,0,0)"/></g></g><g><g><rect fill="white" stroke="none" x="126.09457881779169" y="1496.901148666558" width="179.25268806519531" height="21.23576429"/></g><text fill="black" stroke="none" font-family="sans-serif" font-size="11pt" font-style="normal" font-weight="normal" text-decoration="normal" x="128.5448593127917" y="1511.602831636558" text-anchor="start" dominant-baseline="alphabetic" xml:space="preserve">GET /album-art/ab(...)9.jpg</text></g><g><path fill="none" stroke="black" paint-order="fill stroke markers" d=" M 44.631447682160164 1514.1309896312478 L 384.0878641352852 1530.3362225036933" stroke-miterlimit="10" stroke-width="1.3612669416666667" stroke-dasharray=""/><g transform="translate(386.8103980186185,1530.4661929312479) rotate(2.733155204931307,0,0) translate(-386.8103980186185,-1530.4661929312479)"><path fill="black" stroke="none" paint-order="stroke fill markers" d=" M 373.19772860195184 1523.6598582229146 L 386.8103980186185 1530.4661929312479 L 373.19772860195184 1537.272527639581 Z"/><g transform="rotate(-2.733155204931307,0,0)"/></g></g><g><g><rect fill="white" stroke="none" x="76.58849819035028" y="1554.968997881248" width="278.2648493200781" height="21.23576429"/></g><text fill="black" stroke="none" font-family="sans-serif" font-size="11pt" font-style="normal" font-weight="normal" text-decoration="normal" x="79.03877868535028" y="1569.670680851248" text-anchor="start" dominant-baseline="alphabetic" xml:space="preserve">HTTP/1.1 200 OK  + album-art/ab(...)4.jpg</text></g><g><path fill="none" stroke="black" paint-order="fill stroke markers" d=" M 386.8103980186185 1574.562198400464 L 47.3539815654935 1590.7674312729096" stroke-miterlimit="10" stroke-width="1.3612669416666667" stroke-dasharray=""/><g transform="translate(44.631447682160164,1590.8974017004641) rotate(-2.733155204931307,0,0) translate(-44.631447682160164,-1590.8974017004641)"><path fill="black" stroke="none" paint-order="stroke fill markers" d=" M 58.244117098826834 1584.091066992131 L 44.631447682160164 1590.8974017004641 L 58.244117098826834 1597.7037364087973 Z"/><g transform="rotate(2.733155204931307,0,0)"/></g></g><g><g><rect fill="white" stroke="none" x="76.58849819035028" y="1615.4002066504643" width="278.2648493200781" height="21.23576429"/></g><text fill="black" stroke="none" font-family="sans-serif" font-size="11pt" font-style="normal" font-weight="normal" text-decoration="normal" x="79.03877868535028" y="1630.1018896204644" text-anchor="start" dominant-baseline="alphabetic" xml:space="preserve">HTTP/1.1 200 OK  + album-art/ab(...)5.jpg</text></g><g><path fill="none" stroke="black" paint-order="fill stroke markers" d=" M 386.8103980186185 1634.9934071696803 L 47.3539815654935 1651.1986400421258" stroke-miterlimit="10" stroke-width="1.3612669416666667" stroke-dasharray=""/><g transform="translate(44.631447682160164,1651.3286104696804) rotate(-2.733155204931307,0,0) translate(-44.631447682160164,-1651.3286104696804)"><path fill="black" stroke="none" paint-order="stroke fill markers" d=" M 58.244117098826834 1644.5222757613471 L 44.631447682160164 1651.3286104696804 L 58.244117098826834 1658.1349451780136 Z"/><g transform="rotate(2.733155204931307,0,0)"/></g></g><g><g><rect fill="white" stroke="none" x="76.58849819035028" y="1675.8314154196805" width="278.2648493200781" height="21.23576429"/></g><text fill="black" stroke="none" font-family="sans-serif" font-size="11pt" font-style="normal" font-weight="normal" text-decoration="normal" x="79.03877868535028" y="1690.5330983896806" text-anchor="start" dominant-baseline="alphabetic" xml:space="preserve">HTTP/1.1 200 OK  + album-art/ab(...)6.jpg</text></g><g><path fill="none" stroke="black" paint-order="fill stroke markers" d=" M 386.8103980186185 1695.4246159388965 L 47.3539815654935 1711.629848811342" stroke-miterlimit="10" stroke-width="1.3612669416666667" stroke-dasharray=""/><g transform="translate(44.631447682160164,1711.7598192388966) rotate(-2.733155204931307,0,0) translate(-44.631447682160164,-1711.7598192388966)"><path fill="black" stroke="none" paint-order="stroke fill markers" d=" M 58.244117098826834 1704.9534845305634 L 44.631447682160164 1711.7598192388966 L 58.244117098826834 1718.5661539472299 Z"/><g transform="rotate(2.733155204931307,0,0)"/></g></g><g><g><rect fill="white" stroke="none" x="76.58849819035028" y="1736.2626241888968" width="278.2648493200781" height="21.23576429"/></g><text fill="black" stroke="none" font-family="sans-serif" font-size="11pt" font-style="normal" font-weight="normal" text-decoration="normal" x="79.03877868535028" y="1750.9643071588969" text-anchor="start" dominant-baseline="alphabetic" xml:space="preserve">HTTP/1.1 200 OK  + album-art/ab(...)7.jpg</text></g><g><path fill="none" stroke="black" paint-order="fill stroke markers" d=" M 386.8103980186185 1755.8558247081128 L 47.3539815654935 1772.0610575805583" stroke-miterlimit="10" stroke-width="1.3612669416666667" stroke-dasharray=""/><g transform="translate(44.631447682160164,1772.1910280081129) rotate(-2.733155204931307,0,0) translate(-44.631447682160164,-1772.1910280081129)"><path fill="black" stroke="none" paint-order="stroke fill markers" d=" M 58.244117098826834 1765.3846932997797 L 44.631447682160164 1772.1910280081129 L 58.244117098826834 1778.997362716446 Z"/><g transform="rotate(2.733155204931307,0,0)"/></g></g><g><g><rect fill="white" stroke="none" x="76.58849819035028" y="1796.693832958113" width="278.2648493200781" height="21.23576429"/></g><text fill="black" stroke="none" font-family="sans-serif" font-size="11pt" font-style="normal" font-weight="normal" text-decoration="normal" x="79.03877868535028" y="1811.3955159281131" text-anchor="start" dominant-baseline="alphabetic" xml:space="preserve">HTTP/1.1 200 OK  + album-art/ab(...)8.jpg</text></g><g><path fill="none" stroke="black" paint-order="fill stroke markers" d=" M 386.8103980186185 1816.287033477329 L 47.3539815654935 1832.4922663497746" stroke-miterlimit="10" stroke-width="1.3612669416666667" stroke-dasharray=""/><g transform="translate(44.631447682160164,1832.6222367773291) rotate(-2.733155204931307,0,0) translate(-44.631447682160164,-1832.6222367773291)"><path fill="black" stroke="none" paint-order="stroke fill markers" d=" M 58.244117098826834 1825.815902068996 L 44.631447682160164 1832.6222367773291 L 58.244117098826834 1839.4285714856624 Z"/><g transform="rotate(2.733155204931307,0,0)"/></g></g><g><g><rect fill="white" stroke="none" x="76.58849819035028" y="1857.1250417273293" width="278.2648493200781" height="21.23576429"/></g><text fill="black" stroke="none" font-family="sans-serif" font-size="11pt" font-style="normal" font-weight="normal" text-decoration="normal" x="79.03877868535028" y="1871.8267246973294" text-anchor="start" dominant-baseline="alphabetic" xml:space="preserve">HTTP/1.1 200 OK  + album-art/ab(...)9.jpg</text></g><g><path fill="none" stroke="black" paint-order="fill stroke markers" d=" M 386.8103980186185 1876.7182422465453 L 47.3539815654935 1892.9234751189908" stroke-miterlimit="10" stroke-width="1.3612669416666667" stroke-dasharray=""/><g transform="translate(44.631447682160164,1893.0534455465454) rotate(-2.733155204931307,0,0) translate(-44.631447682160164,-1893.0534455465454)"><path fill="black" stroke="none" paint-order="stroke fill markers" d=" M 58.244117098826834 1886.2471108382122 L 44.631447682160164 1893.0534455465454 L 58.244117098826834 1899.8597802548786 Z"/><g transform="rotate(2.733155204931307,0,0)"/></g></g><g><g><rect fill="white" stroke="none" x="122.01798732609247" y="1917.5562504965453" width="187.40587104859375" height="21.23576429"/></g><text fill="black" stroke="none" font-family="sans-serif" font-size="11pt" font-style="normal" font-weight="normal" text-decoration="normal" x="124.46826782109247" y="1932.2579334665454" text-anchor="start" dominant-baseline="alphabetic" xml:space="preserve">GET /album-art/ab(...)10.jpg</text></g><g><path fill="none" stroke="black" paint-order="fill stroke markers" d=" M 44.631447682160164 1934.9807029378396 L 384.0878641352852 1951.1859358102852" stroke-miterlimit="10" stroke-width="1.3612669416666667" stroke-dasharray=""/><g transform="translate(386.8103980186185,1951.3159062378397) rotate(2.733155204931307,0,0) translate(-386.8103980186185,-1951.3159062378397)"><path fill="black" stroke="none" paint-order="stroke fill markers" d=" M 373.19772860195184 1944.5095715295065 L 386.8103980186185 1951.3159062378397 L 373.19772860195184 1958.122240946173 Z"/><g transform="rotate(-2.733155204931307,0,0)"/></g></g><g><g><rect fill="white" stroke="none" x="122.56201656193231" y="1975.8187111878399" width="186.31781257691406" height="21.23576429"/></g><text fill="black" stroke="none" font-family="sans-serif" font-size="11pt" font-style="normal" font-weight="normal" text-decoration="normal" x="125.01229705693231" y="1990.52039415784" text-anchor="start" dominant-baseline="alphabetic" xml:space="preserve">GET /album-art/ab(...)11.jpg</text></g><g><path fill="none" stroke="black" paint-order="fill stroke markers" d=" M 44.631447682160164 1993.2171923408364 L 384.0878641352852 2009.422425213282" stroke-miterlimit="10" stroke-width="1.3612669416666667" stroke-dasharray=""/><g transform="translate(386.8103980186185,2009.5523956408365) rotate(2.733155204931307,0,0) translate(-386.8103980186185,-2009.5523956408365)"><path fill="black" stroke="none" paint-order="stroke fill markers" d=" M 373.19772860195184 2002.7460609325033 L 386.8103980186185 2009.5523956408365 L 373.19772860195184 2016.3587303491697 Z"/><g transform="rotate(-2.733155204931307,0,0)"/></g></g><g><g><rect fill="white" stroke="none" x="122.01798732609247" y="2034.0552005908366" width="187.40587104859375" height="21.23576429"/></g><text fill="black" stroke="none" font-family="sans-serif" font-size="11pt" font-style="normal" font-weight="normal" text-decoration="normal" x="124.46826782109247" y="2048.7568835608367" text-anchor="start" dominant-baseline="alphabetic" xml:space="preserve">GET /album-art/ab(...)12.jpg</text></g><g><path fill="none" stroke="black" paint-order="fill stroke markers" d=" M 44.631447682160164 2051.479653032131 L 384.0878641352852 2067.6848859045767" stroke-miterlimit="10" stroke-width="1.3612669416666667" stroke-dasharray=""/><g transform="translate(386.8103980186185,2067.814856332131) rotate(2.733155204931307,0,0) translate(-386.8103980186185,-2067.814856332131)"><path fill="black" stroke="none" paint-order="stroke fill markers" d=" M 373.19772860195184 2061.0085216237976 L 386.8103980186185 2067.814856332131 L 373.19772860195184 2074.6211910404645 Z"/><g transform="rotate(-2.733155204931307,0,0)"/></g></g><g><g><rect fill="white" stroke="none" x="72.51191432804559" y="2092.3176612821308" width="286.4180170446875" height="21.23576429"/></g><text fill="black" stroke="none" font-family="sans-serif" font-size="11pt" font-style="normal" font-weight="normal" text-decoration="normal" x="74.96219482304559" y="2107.019344252131" text-anchor="start" dominant-baseline="alphabetic" xml:space="preserve">HTTP/1.1 200 OK  + album-art/ab(...)10.jpg</text></g><g><path fill="none" stroke="black" paint-order="fill stroke markers" d=" M 386.8103980186185 2112.1054729137336 L 47.3539815654935 2128.3107057861794" stroke-miterlimit="10" stroke-width="1.3612669416666667" stroke-dasharray=""/><g transform="translate(44.631447682160164,2128.4406762137337) rotate(-2.733155204931307,0,0) translate(-44.631447682160164,-2128.4406762137337)"><path fill="black" stroke="none" paint-order="stroke fill markers" d=" M 58.244117098826834 2121.6343415054002 L 44.631447682160164 2128.4406762137337 L 58.244117098826834 2135.247010922067 Z"/><g transform="rotate(2.733155204931307,0,0)"/></g></g><g><g><rect fill="white" stroke="none" x="73.0559359344909" y="2152.943481163734" width="285.32997383179685" height="21.23576429"/></g><text fill="black" stroke="none" font-family="sans-serif" font-size="11pt" font-style="normal" font-weight="normal" text-decoration="normal" x="75.5062164294909" y="2167.645164133734" text-anchor="start" dominant-baseline="alphabetic" xml:space="preserve">HTTP/1.1 200 OK  + album-art/ab(...)11.jpg</text></g><g><path fill="none" stroke="black" paint-order="fill stroke markers" d=" M 386.8103980186185 2172.7053218712567 L 47.3539815654935 2188.9105547437025" stroke-miterlimit="10" stroke-width="1.3612669416666667" stroke-dasharray=""/><g transform="translate(44.631447682160164,2189.040525171257) rotate(-2.733155204931307,0,0) translate(-44.631447682160164,-2189.040525171257)"><path fill="black" stroke="none" paint-order="stroke fill markers" d=" M 58.244117098826834 2182.2341904629234 L 44.631447682160164 2189.040525171257 L 58.244117098826834 2195.8468598795903 Z"/><g transform="rotate(2.733155204931307,0,0)"/></g></g><g><g><rect fill="white" stroke="none" x="72.51191432804559" y="2213.5433301212565" width="286.4180170446875" height="21.23576429"/></g><text fill="black" stroke="none" font-family="sans-serif" font-size="11pt" font-style="normal" font-weight="normal" text-decoration="normal" x="74.96219482304559" y="2228.2450130912566" text-anchor="start" dominant-baseline="alphabetic" xml:space="preserve">HTTP/1.1 200 OK  + album-art/ab(...)12.jpg</text></g><g><path fill="none" stroke="black" paint-order="fill stroke markers" d=" M 386.8103980186185 2233.3311417528594 L 47.3539815654935 2249.536374625305" stroke-miterlimit="10" stroke-width="1.3612669416666667" stroke-dasharray=""/><g transform="translate(44.631447682160164,2249.6663450528595) rotate(-2.733155204931307,0,0) translate(-44.631447682160164,-2249.6663450528595)"><path fill="black" stroke="none" paint-order="stroke fill markers" d=" M 58.244117098826834 2242.860010344526 L 44.631447682160164 2249.6663450528595 L 58.244117098826834 2256.472679761193 Z"/><g transform="rotate(2.733155204931307,0,0)"/></g></g><g><g><rect fill="white" stroke="none" x="122.01798732609247" y="2274.1691500028596" width="187.40587104859375" height="21.23576429"/></g><text fill="black" stroke="none" font-family="sans-serif" font-size="11pt" font-style="normal" font-weight="normal" text-decoration="normal" x="124.46826782109247" y="2288.8708329728597" text-anchor="start" dominant-baseline="alphabetic" xml:space="preserve">GET /album-art/ab(...)13.jpg</text></g><g><path fill="none" stroke="black" paint-order="fill stroke markers" d=" M 44.631447682160164 2291.593602444154 L 384.0878641352852 2307.7988353165997" stroke-miterlimit="10" stroke-width="1.3612669416666667" stroke-dasharray=""/><g transform="translate(386.8103980186185,2307.928805744154) rotate(2.733155204931307,0,0) translate(-386.8103980186185,-2307.928805744154)"><path fill="black" stroke="none" paint-order="stroke fill markers" d=" M 373.19772860195184 2301.1224710358206 L 386.8103980186185 2307.928805744154 L 373.19772860195184 2314.7351404524875 Z"/><g transform="rotate(-2.733155204931307,0,0)"/></g></g><g><g><rect fill="white" stroke="none" x="122.01798732609247" y="2332.431610694154" width="187.40587104859375" height="21.23576429"/></g><text fill="black" stroke="none" font-family="sans-serif" font-size="11pt" font-style="normal" font-weight="normal" text-decoration="normal" x="124.46826782109247" y="2347.1332936641543" text-anchor="start" dominant-baseline="alphabetic" xml:space="preserve">GET /album-art/ab(...)14.jpg</text></g><g><path fill="none" stroke="black" paint-order="fill stroke markers" d=" M 44.631447682160164 2349.8560631354485 L 384.0878641352852 2366.0612960078943" stroke-miterlimit="10" stroke-width="1.3612669416666667" stroke-dasharray=""/><g transform="translate(386.8103980186185,2366.1912664354486) rotate(2.733155204931307,0,0) translate(-386.8103980186185,-2366.1912664354486)"><path fill="black" stroke="none" paint-order="stroke fill markers" d=" M 373.19772860195184 2359.384931727115 L 386.8103980186185 2366.1912664354486 L 373.19772860195184 2372.997601143782 Z"/><g transform="rotate(-2.733155204931307,0,0)"/></g></g><g><g><rect fill="white" stroke="none" x="122.01798732609247" y="2390.6940713854488" width="187.40587104859375" height="21.23576429"/></g><text fill="black" stroke="none" font-family="sans-serif" font-size="11pt" font-style="normal" font-weight="normal" text-decoration="normal" x="124.46826782109247" y="2405.395754355449" text-anchor="start" dominant-baseline="alphabetic" xml:space="preserve">GET /album-art/ab(...)15.jpg</text></g><g><path fill="none" stroke="black" paint-order="fill stroke markers" d=" M 44.631447682160164 2408.118523826743 L 384.0878641352852 2424.323756699189" stroke-miterlimit="10" stroke-width="1.3612669416666667" stroke-dasharray=""/><g transform="translate(386.8103980186185,2424.453727126743) rotate(2.733155204931307,0,0) translate(-386.8103980186185,-2424.453727126743)"><path fill="black" stroke="none" paint-order="stroke fill markers" d=" M 373.19772860195184 2417.6473924184097 L 386.8103980186185 2424.453727126743 L 373.19772860195184 2431.2600618350766 Z"/><g transform="rotate(-2.733155204931307,0,0)"/></g></g><g><g><rect fill="white" stroke="none" x="122.01798732609247" y="2448.9565320767433" width="187.40587104859375" height="21.23576429"/></g><text fill="black" stroke="none" font-family="sans-serif" font-size="11pt" font-style="normal" font-weight="normal" text-decoration="normal" x="124.46826782109247" y="2463.6582150467434" text-anchor="start" dominant-baseline="alphabetic" xml:space="preserve">GET /album-art/ab(...)16.jpg</text></g><g><path fill="none" stroke="black" paint-order="fill stroke markers" d=" M 44.631447682160164 2466.3809845180376 L 384.0878641352852 2482.5862173904834" stroke-miterlimit="10" stroke-width="1.3612669416666667" stroke-dasharray=""/><g transform="translate(386.8103980186185,2482.7161878180377) rotate(2.733155204931307,0,0) translate(-386.8103980186185,-2482.7161878180377)"><path fill="black" stroke="none" paint-order="stroke fill markers" d=" M 373.19772860195184 2475.9098531097043 L 386.8103980186185 2482.7161878180377 L 373.19772860195184 2489.522522526371 Z"/><g transform="rotate(-2.733155204931307,0,0)"/></g></g><g><g><rect fill="white" stroke="none" x="122.01798732609247" y="2507.218992768038" width="187.40587104859375" height="21.23576429"/></g><text fill="black" stroke="none" font-family="sans-serif" font-size="11pt" font-style="normal" font-weight="normal" text-decoration="normal" x="124.46826782109247" y="2521.920675738038" text-anchor="start" dominant-baseline="alphabetic" xml:space="preserve">GET /album-art/ab(...)17.jpg</text></g><g><path fill="none" stroke="black" paint-order="fill stroke markers" d=" M 44.631447682160164 2524.643445209332 L 384.0878641352852 2540.848678081778" stroke-miterlimit="10" stroke-width="1.3612669416666667" stroke-dasharray=""/><g transform="translate(386.8103980186185,2540.9786485093323) rotate(2.733155204931307,0,0) translate(-386.8103980186185,-2540.9786485093323)"><path fill="black" stroke="none" paint-order="stroke fill markers" d=" M 373.19772860195184 2534.172313800999 L 386.8103980186185 2540.9786485093323 L 373.19772860195184 2547.7849832176657 Z"/><g transform="rotate(-2.733155204931307,0,0)"/></g></g><g><g><rect fill="white" stroke="none" x="122.01798732609247" y="2565.4814534593324" width="187.40587104859375" height="21.23576429"/></g><text fill="black" stroke="none" font-family="sans-serif" font-size="11pt" font-style="normal" font-weight="normal" text-decoration="normal" x="124.46826782109247" y="2580.1831364293325" text-anchor="start" dominant-baseline="alphabetic" xml:space="preserve">GET /album-art/ab(...)18.jpg</text></g><g><path fill="none" stroke="black" paint-order="fill stroke markers" d=" M 44.631447682160164 2582.9059059006267 L 384.0878641352852 2599.1111387730725" stroke-miterlimit="10" stroke-width="1.3612669416666667" stroke-dasharray=""/><g transform="translate(386.8103980186185,2599.241109200627) rotate(2.733155204931307,0,0) translate(-386.8103980186185,-2599.241109200627)"><path fill="black" stroke="none" paint-order="stroke fill markers" d=" M 373.19772860195184 2592.4347744922934 L 386.8103980186185 2599.241109200627 L 373.19772860195184 2606.0474439089603 Z"/><g transform="rotate(-2.733155204931307,0,0)"/></g></g><g><g><rect fill="white" stroke="none" x="72.51191432804559" y="2623.7439141506266" width="286.4180170446875" height="21.23576429"/></g><text fill="black" stroke="none" font-family="sans-serif" font-size="11pt" font-style="normal" font-weight="normal" text-decoration="normal" x="74.96219482304559" y="2638.4455971206266" text-anchor="start" dominant-baseline="alphabetic" xml:space="preserve">HTTP/1.1 200 OK  + album-art/ab(...)13.jpg</text></g><g><path fill="none" stroke="black" paint-order="fill stroke markers" d=" M 386.8103980186185 2643.5317257822294 L 47.3539815654935 2659.736958654675" stroke-miterlimit="10" stroke-width="1.3612669416666667" stroke-dasharray=""/><g transform="translate(44.631447682160164,2659.8669290822295) rotate(-2.733155204931307,0,0) translate(-44.631447682160164,-2659.8669290822295)"><path fill="black" stroke="none" paint-order="stroke fill markers" d=" M 58.244117098826834 2653.060594373896 L 44.631447682160164 2659.8669290822295 L 58.244117098826834 2666.673263790563 Z"/><g transform="rotate(2.733155204931307,0,0)"/></g></g><g><g><rect fill="white" stroke="none" x="72.51191432804559" y="2684.369734032229" width="286.4180170446875" height="21.23576429"/></g><text fill="black" stroke="none" font-family="sans-serif" font-size="11pt" font-style="normal" font-weight="normal" text-decoration="normal" x="74.96219482304559" y="2699.0714170022293" text-anchor="start" dominant-baseline="alphabetic" xml:space="preserve">HTTP/1.1 200 OK  + album-art/ab(...)14.jpg</text></g><g><path fill="none" stroke="black" paint-order="fill stroke markers" d=" M 386.8103980186185 2704.157545663832 L 47.3539815654935 2720.362778536278" stroke-miterlimit="10" stroke-width="1.3612669416666667" stroke-dasharray=""/><g transform="translate(44.631447682160164,2720.492748963832) rotate(-2.733155204931307,0,0) translate(-44.631447682160164,-2720.492748963832)"><path fill="black" stroke="none" paint-order="stroke fill markers" d=" M 58.244117098826834 2713.6864142554987 L 44.631447682160164 2720.492748963832 L 58.244117098826834 2727.2990836721656 Z"/><g transform="rotate(2.733155204931307,0,0)"/></g></g><g><g><rect fill="white" stroke="none" x="72.51191432804559" y="2744.995553913832" width="286.4180170446875" height="21.23576429"/></g><text fill="black" stroke="none" font-family="sans-serif" font-size="11pt" font-style="normal" font-weight="normal" text-decoration="normal" x="74.96219482304559" y="2759.697236883832" text-anchor="start" dominant-baseline="alphabetic" xml:space="preserve">HTTP/1.1 200 OK  + album-art/ab(...)15.jpg</text></g><g><path fill="none" stroke="black" paint-order="fill stroke markers" d=" M 386.8103980186185 2764.7833655454347 L 47.3539815654935 2780.9885984178804" stroke-miterlimit="10" stroke-width="1.3612669416666667" stroke-dasharray=""/><g transform="translate(44.631447682160164,2781.1185688454348) rotate(-2.733155204931307,0,0) translate(-44.631447682160164,-2781.1185688454348)"><path fill="black" stroke="none" paint-order="stroke fill markers" d=" M 58.244117098826834 2774.3122341371013 L 44.631447682160164 2781.1185688454348 L 58.244117098826834 2787.924903553768 Z"/><g transform="rotate(2.733155204931307,0,0)"/></g></g><g><g><rect fill="white" stroke="none" x="72.51191432804559" y="2805.6213737954345" width="286.4180170446875" height="21.23576429"/></g><text fill="black" stroke="none" font-family="sans-serif" font-size="11pt" font-style="normal" font-weight="normal" text-decoration="normal" x="74.96219482304559" y="2820.3230567654346" text-anchor="start" dominant-baseline="alphabetic" xml:space="preserve">HTTP/1.1 200 OK  + album-art/ab(...)16.jpg</text></g><g><path fill="none" stroke="black" paint-order="fill stroke markers" d=" M 386.8103980186185 2825.4091854270373 L 47.3539815654935 2841.614418299483" stroke-miterlimit="10" stroke-width="1.3612669416666667" stroke-dasharray=""/><g transform="translate(44.631447682160164,2841.7443887270374) rotate(-2.733155204931307,0,0) translate(-44.631447682160164,-2841.7443887270374)"><path fill="black" stroke="none" paint-order="stroke fill markers" d=" M 58.244117098826834 2834.938054018704 L 44.631447682160164 2841.7443887270374 L 58.244117098826834 2848.550723435371 Z"/><g transform="rotate(2.733155204931307,0,0)"/></g></g><g><g><rect fill="white" stroke="none" x="72.51191432804559" y="2866.247193677037" width="286.4180170446875" height="21.23576429"/></g><text fill="black" stroke="none" font-family="sans-serif" font-size="11pt" font-style="normal" font-weight="normal" text-decoration="normal" x="74.96219482304559" y="2880.948876647037" text-anchor="start" dominant-baseline="alphabetic" xml:space="preserve">HTTP/1.1 200 OK  + album-art/ab(...)17.jpg</text></g><g><path fill="none" stroke="black" paint-order="fill stroke markers" d=" M 386.8103980186185 2886.03500530864 L 47.3539815654935 2902.2402381810857" stroke-miterlimit="10" stroke-width="1.3612669416666667" stroke-dasharray=""/><g transform="translate(44.631447682160164,2902.37020860864) rotate(-2.733155204931307,0,0) translate(-44.631447682160164,-2902.37020860864)"><path fill="black" stroke="none" paint-order="stroke fill markers" d=" M 58.244117098826834 2895.5638739003066 L 44.631447682160164 2902.37020860864 L 58.244117098826834 2909.1765433169735 Z"/><g transform="rotate(2.733155204931307,0,0)"/></g></g><g><g><rect fill="white" stroke="none" x="72.51191432804559" y="2926.8730135586397" width="286.4180170446875" height="21.23576429"/></g><text fill="black" stroke="none" font-family="sans-serif" font-size="11pt" font-style="normal" font-weight="normal" text-decoration="normal" x="74.96219482304559" y="2941.57469652864" text-anchor="start" dominant-baseline="alphabetic" xml:space="preserve">HTTP/1.1 200 OK  + album-art/ab(...)18.jpg</text></g><g><path fill="none" stroke="black" paint-order="fill stroke markers" d=" M 386.8103980186185 2946.6608251902426 L 47.3539815654935 2962.8660580626884" stroke-miterlimit="10" stroke-width="1.3612669416666667" stroke-dasharray=""/><g transform="translate(44.631447682160164,2962.9960284902427) rotate(-2.733155204931307,0,0) translate(-44.631447682160164,-2962.9960284902427)"><path fill="black" stroke="none" paint-order="stroke fill markers" d=" M 58.244117098826834 2956.189693781909 L 44.631447682160164 2962.9960284902427 L 58.244117098826834 2969.802363198576 Z"/><g transform="rotate(2.733155204931307,0,0)"/></g></g><g><g><rect fill="white" stroke="none" x="122.01798732609247" y="2987.498833440243" width="187.40587104859375" height="21.23576429"/></g><text fill="black" stroke="none" font-family="sans-serif" font-size="11pt" font-style="normal" font-weight="normal" text-decoration="normal" x="124.46826782109247" y="3002.200516410243" text-anchor="start" dominant-baseline="alphabetic" xml:space="preserve">GET /album-art/ab(...)19.jpg</text></g><g><path fill="none" stroke="black" paint-order="fill stroke markers" d=" M 44.631447682160164 3004.923285881537 L 384.0878641352852 3021.128518753983" stroke-miterlimit="10" stroke-width="1.3612669416666667" stroke-dasharray=""/><g transform="translate(386.8103980186185,3021.2584891815372) rotate(2.733155204931307,0,0) translate(-386.8103980186185,-3021.2584891815372)"><path fill="black" stroke="none" paint-order="stroke fill markers" d=" M 373.19772860195184 3014.452154473204 L 386.8103980186185 3021.2584891815372 L 373.19772860195184 3028.0648238898707 Z"/><g transform="rotate(-2.733155204931307,0,0)"/></g></g><g><g><rect fill="white" stroke="none" x="122.01798732609247" y="3045.7612941315374" width="187.40587104859375" height="21.23576429"/></g><text fill="black" stroke="none" font-family="sans-serif" font-size="11pt" font-style="normal" font-weight="normal" text-decoration="normal" x="124.46826782109247" y="3060.4629771015375" text-anchor="start" dominant-baseline="alphabetic" xml:space="preserve">GET /album-art/ab(...)20.jpg</text></g><g><path fill="none" stroke="black" paint-order="fill stroke markers" d=" M 44.631447682160164 3063.1857465728317 L 384.0878641352852 3079.3909794452775" stroke-miterlimit="10" stroke-width="1.3612669416666667" stroke-dasharray=""/><g transform="translate(386.8103980186185,3079.520949872832) rotate(2.733155204931307,0,0) translate(-386.8103980186185,-3079.520949872832)"><path fill="black" stroke="none" paint-order="stroke fill markers" d=" M 373.19772860195184 3072.7146151644984 L 386.8103980186185 3079.520949872832 L 373.19772860195184 3086.3272845811653 Z"/><g transform="rotate(-2.733155204931307,0,0)"/></g></g><g><g><rect fill="white" stroke="none" x="72.51191432804559" y="3104.0237548228315" width="286.4180170446875" height="21.23576429"/></g><text fill="black" stroke="none" font-family="sans-serif" font-size="11pt" font-style="normal" font-weight="normal" text-decoration="normal" x="74.96219482304559" y="3118.7254377928316" text-anchor="start" dominant-baseline="alphabetic" xml:space="preserve">HTTP/1.1 200 OK  + album-art/ab(...)19.jpg</text></g><g><path fill="none" stroke="black" paint-order="fill stroke markers" d=" M 386.8103980186185 3123.8115664544343 L 47.3539815654935 3140.01679932688" stroke-miterlimit="10" stroke-width="1.3612669416666667" stroke-dasharray=""/><g transform="translate(44.631447682160164,3140.1467697544344) rotate(-2.733155204931307,0,0) translate(-44.631447682160164,-3140.1467697544344)"><path fill="black" stroke="none" paint-order="stroke fill markers" d=" M 58.244117098826834 3133.340435046101 L 44.631447682160164 3140.1467697544344 L 58.244117098826834 3146.953104462768 Z"/><g transform="rotate(2.733155204931307,0,0)"/></g></g><g><g><rect fill="white" stroke="none" x="72.51191432804559" y="3164.649574704434" width="286.4180170446875" height="21.23576429"/></g><text fill="black" stroke="none" font-family="sans-serif" font-size="11pt" font-style="normal" font-weight="normal" text-decoration="normal" x="74.96219482304559" y="3179.3512576744342" text-anchor="start" dominant-baseline="alphabetic" xml:space="preserve">HTTP/1.1 200 OK  + album-art/ab(...)20.jpg</text></g><g><path fill="none" stroke="black" paint-order="fill stroke markers" d=" M 386.8103980186185 3184.437386336037 L 47.3539815654935 3200.6426192084828" stroke-miterlimit="10" stroke-width="1.3612669416666667" stroke-dasharray=""/><g transform="translate(44.631447682160164,3200.772589636037) rotate(-2.733155204931307,0,0) translate(-44.631447682160164,-3200.772589636037)"><path fill="black" stroke="none" paint-order="stroke fill markers" d=" M 58.244117098826834 3193.9662549277036 L 44.631447682160164 3200.772589636037 L 58.244117098826834 3207.5789243443705 Z"/><g transform="rotate(2.733155204931307,0,0)"/></g></g></g><g/><g/><g/></g></svg>